<svg xmlns="http://www.w3.org/2000/svg" xmlns:xlink="http://www.w3.org/1999/xlink" viewBox="0 0 16 17"><path d="M 3.736 0.842 C 3.735 0.679 3.672 0.522 3.559 0.407 C 3.446 0.292 3.292 0.227 3.132 0.227 L 0.719 0.227 C 0.559 0.227 0.405 0.291 0.292 0.407 C 0.179 0.522 0.115 0.679 0.115 0.842 L 0.115 3.303 C 0.115 3.384 0.131 3.464 0.161 3.539 C 0.191 3.614 0.236 3.681 0.292 3.739 C 0.348 3.796 0.414 3.841 0.488 3.872 C 0.561 3.903 0.639 3.919 0.719 3.919 L 2.335 3.919 C 2.495 3.92 2.648 3.985 2.76 4.1 C 2.872 4.216 2.935 4.372 2.935 4.535 L 2.935 6.626 C 2.935 6.789 2.999 6.946 3.112 7.061 C 3.225 7.177 3.379 7.242 3.539 7.242 L 5.169 7.242 C 5.329 7.242 5.482 7.307 5.595 7.422 C 5.708 7.538 5.772 7.694 5.772 7.857 L 5.772 8.718 C 5.772 8.882 5.708 9.038 5.595 9.154 C 5.482 9.269 5.329 9.334 5.169 9.334 L 3.481 9.334 C 3.321 9.334 3.168 9.399 3.055 9.515 C 2.942 9.63 2.878 9.786 2.878 9.95 L 2.878 12.411 C 2.878 12.574 2.942 12.731 3.055 12.846 C 3.168 12.961 3.322 13.026 3.481 13.026 L 5.172 13.026 C 5.332 13.026 5.485 13.091 5.598 13.207 C 5.712 13.322 5.775 13.478 5.775 13.642 L 5.775 15.611 C 5.775 15.691 5.791 15.771 5.821 15.846 C 5.851 15.921 5.896 15.989 5.952 16.046 C 6.008 16.103 6.074 16.149 6.147 16.18 C 6.221 16.211 6.299 16.227 6.378 16.227 L 13.68 16.227 C 13.84 16.227 13.994 16.162 14.107 16.046 C 14.22 15.931 14.284 15.774 14.284 15.611 L 14.284 13.147 C 14.284 12.984 14.22 12.827 14.107 12.712 C 13.994 12.596 13.84 12.531 13.68 12.531 L 7.104 12.531 C 7.025 12.531 6.947 12.515 6.873 12.485 C 6.8 12.454 6.734 12.408 6.678 12.351 C 6.621 12.294 6.577 12.226 6.547 12.152 C 6.516 12.077 6.501 11.997 6.501 11.916 L 6.501 11.021 C 6.501 10.858 6.565 10.701 6.678 10.586 C 6.791 10.47 6.944 10.406 7.104 10.406 L 8.794 10.406 C 8.873 10.406 8.952 10.39 9.025 10.359 C 9.098 10.328 9.165 10.283 9.221 10.226 C 9.277 10.168 9.321 10.101 9.352 10.026 C 9.382 9.951 9.397 9.871 9.397 9.79 L 9.397 7.734 C 9.397 7.571 9.461 7.414 9.574 7.299 C 9.687 7.184 9.841 7.119 10 7.119 L 11.63 7.119 C 11.709 7.119 11.787 7.103 11.861 7.072 C 11.934 7.041 12.001 6.996 12.057 6.939 C 12.113 6.882 12.157 6.814 12.188 6.739 C 12.218 6.664 12.234 6.584 12.234 6.504 L 12.234 4.595 C 12.233 4.515 12.249 4.434 12.279 4.36 C 12.309 4.285 12.353 4.217 12.409 4.159 C 12.465 4.102 12.531 4.056 12.604 4.025 C 12.678 3.994 12.756 3.978 12.835 3.978 L 14.512 3.978 C 14.672 3.978 14.825 3.914 14.938 3.799 C 15.051 3.684 15.115 3.528 15.115 3.365 L 15.115 0.903 C 15.115 0.823 15.1 0.743 15.069 0.668 C 15.039 0.593 14.995 0.525 14.939 0.468 C 14.883 0.411 14.816 0.366 14.743 0.335 C 14.67 0.304 14.591 0.288 14.512 0.288 L 12.098 0.288 C 12.019 0.288 11.94 0.304 11.867 0.335 C 11.794 0.366 11.727 0.411 11.671 0.468 C 11.615 0.525 11.571 0.593 11.54 0.668 C 11.51 0.743 11.495 0.823 11.495 0.903 L 11.495 2.811 C 11.495 2.974 11.431 3.13 11.318 3.245 C 11.205 3.361 11.052 3.426 10.892 3.426 L 9.215 3.426 C 9.136 3.426 9.057 3.442 8.984 3.472 C 8.911 3.503 8.844 3.549 8.788 3.606 C 8.732 3.663 8.687 3.731 8.657 3.805 C 8.627 3.88 8.611 3.96 8.611 4.041 L 8.611 6.098 C 8.611 6.262 8.547 6.418 8.434 6.533 C 8.321 6.649 8.168 6.714 8.008 6.714 L 7.162 6.714 C 7.002 6.713 6.849 6.648 6.736 6.533 C 6.623 6.418 6.559 6.261 6.559 6.098 L 6.559 4.165 C 6.559 4.003 6.496 3.847 6.384 3.731 C 6.272 3.616 6.119 3.55 5.96 3.549 L 4.339 3.549 C 4.26 3.549 4.181 3.534 4.108 3.503 C 4.035 3.472 3.968 3.426 3.912 3.369 C 3.856 3.312 3.812 3.244 3.781 3.17 C 3.751 3.095 3.736 3.015 3.736 2.934 Z" fill="hsl(0, 0%, 0%)"></path></svg>