<svg xmlns="http://www.w3.org/2000/svg" xmlns:xlink="http://www.w3.org/1999/xlink" viewBox="0 0 53 38"><path d="M 49.5 15.91 C 50.881 15.91 52 17.029 52 18.41 C 52 19.791 50.881 20.91 49.5 20.91 Z M 0.732 20.178 C -0.244 19.201 -0.244 17.618 0.732 16.642 L 16.642 0.732 C 17.618 -0.244 19.201 -0.244 20.178 0.732 C 21.154 1.709 21.154 3.291 20.178 4.268 L 6.036 18.41 L 20.178 32.552 C 21.154 33.528 21.154 35.111 20.178 36.088 C 19.201 37.064 17.618 37.064 16.642 36.088 Z M 49.5 20.91 L 2.5 20.91 L 2.5 15.91 L 49.5 15.91 Z" transform="translate(0.5 0.59) rotate(180 26 18.41)" fill="rgb(0,0,0)"></path></svg>