<svg xmlns="http://www.w3.org/2000/svg" width="1397" height="742" fill="none"><path fill="#000" d="M1001.98 227.921c-.37 0-.73-.133-1.02-.408l-97.397-92.452a11.026 11.026 0 0 1-3.288-9.83c.684-4.077 3.429-7.314 7.346-8.642 3.925-1.336 8.071-.448 11.099 2.373l91.26 84.87c2.36 2.184 5.88 2.326 8.4.33l20.64-16.374c3.97-3.142 9.83-2.537 13.07 1.344l17.82 21.402c.52.629.43 1.556-.19 2.082-.63.519-1.55.44-2.08-.188l-17.83-21.403c-2.21-2.663-6.22-3.08-8.95-.919l-20.64 16.374c-3.67 2.907-8.82 2.703-12.24-.479l-91.266-84.871c-2.218-2.066-5.262-2.718-8.133-1.736-2.871.974-4.884 3.347-5.388 6.332a8.084 8.084 0 0 0 2.415 7.205l97.402 92.453c.59.558.61 1.493.05 2.09-.29.306-.68.455-1.07.455l-.01-.008zM622.016 464.47h-50.623c-6.308 0-11.83-4.463-13.143-10.623l-24.368-79.205-53.478 3.009a18.652 18.652 0 0 0-7.684 2.129l-25.178 13.278a23.697 23.697 0 0 1-11.02 2.727h-18.688a12.583 12.583 0 0 1-9.14-3.882 12.567 12.567 0 0 1-3.555-9.263l1.211-33.895a12.659 12.659 0 0 1 7.221-10.999c6.465-3.096 19.357-10.513 32.996-25.378 17.288-18.841 16.454-58.008 15.841-86.607-.063-3.096-.134-6.074-.173-8.91l-15.519-32.834h-44.291c-.818 0-1.479-.66-1.479-1.477v-61.826c-18.641-44.895-109.15-81.076-110.062-81.437l-67.667-26.54a1.475 1.475 0 0 1-.834-1.918 1.475 1.475 0 0 1 1.911-.833l67.675 26.54c.236.095 23.44 9.311 48.641 24.067 33.987 19.893 55.247 39.834 63.184 59.272.071.181.11.37.11.558v60.64h43.748c.574 0 1.093.33 1.337.848l16.054 33.966c.094.188.141.401.141.613.04 2.923.103 6.002.173 9.208.622 29.102 1.479 68.952-16.612 88.665-13.277 14.465-25.759 22.149-33.9 26.046-3.288 1.579-5.419 4.809-5.545 8.446l-1.212 33.895a9.65 9.65 0 0 0 2.73 7.111 9.692 9.692 0 0 0 7.016 2.977h18.688a20.8 20.8 0 0 0 9.636-2.38l25.177-13.278a21.475 21.475 0 0 1 8.896-2.468l54.634-3.072a1.478 1.478 0 0 1 1.495 1.037l24.729 80.377a.803.803 0 0 1 .032.133c1.006 4.832 5.324 8.337 10.264 8.337h50.623c5.734 0 11.004-2.852 14.103-7.637 5.789-8.918 59.455-60.844 61.736-63.052.228-.228.527-.369.85-.409l19.058-2.286a93.158 93.158 0 0 1 9.525-1.886c60.203-8.595 77.924-21.504 88.094-34.17a1.478 1.478 0 0 1 2.305 1.847c-17.863 22.243-53.8 30.084-89.982 35.246a87.548 87.548 0 0 0-9.305 1.846c-.063.016-.126.032-.189.032l-18.657 2.239c-4.782 4.636-55.586 53.914-60.95 62.188-3.649 5.625-9.848 8.98-16.588 8.98l.008.008zm447.754-127.219c-2.45 0-4.81-.927-6.62-2.624L855.394 141.056c-43.913 37.933-36.315 86.638-29.606 129.647 2.368 15.195 4.609 29.549 4.609 42.836 0 2.372-.086 4.714-.267 6.953a1.479 1.479 0 0 1-2.949-.228 85.03 85.03 0 0 0 .251-6.725c0-13.059-2.226-27.303-4.578-42.381-6.882-44.101-14.677-94.078 31.612-133.206a1.487 1.487 0 0 1 1.966.047l208.728 194.475a6.725 6.725 0 0 0 5.47 1.775 6.698 6.698 0 0 0 4.83-3.095l10.01-15.997a6.684 6.684 0 0 0 .71-5.578c-.25-.778.19-1.603.96-1.855a1.49 1.49 0 0 1 1.86.967 9.628 9.628 0 0 1-1.02 8.03l-10.01 15.996a9.65 9.65 0 0 1-6.97 4.455c-.41.055-.83.079-1.25.079h.02zm317.89 240.579c-.4 0-.79-.158-1.07-.464l-124.3-131.203c-.07-.063-.12-.141-.18-.22a9.367 9.367 0 0 1-1.25-7.236 9.356 9.356 0 0 1 4.31-5.956l25.54-15.501a6.445 6.445 0 0 0 2.96-4.117 6.454 6.454 0 0 0-.89-4.989l-4.46-6.86a6.488 6.488 0 0 0-5.46-2.962h-55.99a9.46 9.46 0 0 1-7.29-3.409l-70.99-85.248a1.487 1.487 0 0 1 .19-2.082 1.485 1.485 0 0 1 2.08.188l71 85.248a6.499 6.499 0 0 0 5.01 2.349h55.99c3.21 0 6.19 1.611 7.94 4.306l4.46 6.859c1.41 2.161 1.86 4.738 1.29 7.26-.57 2.514-2.11 4.635-4.32 5.979l-25.54 15.502a6.467 6.467 0 0 0-2.96 4.093 6.454 6.454 0 0 0 .79 4.871l124.2 131.101c.56.589.53 1.524-.06 2.09a1.47 1.47 0 0 1-1.01.401h.01z"/><path fill="#000" d="M1001.98 227.921c-.37 0-.73-.133-1.02-.408l-97.397-92.452a11.026 11.026 0 0 1-3.288-9.83c.684-4.077 3.429-7.314 7.346-8.642 3.925-1.336 8.071-.448 11.099 2.373l91.26 84.87c2.36 2.184 5.88 2.326 8.4.33l20.64-16.374c3.97-3.142 9.83-2.537 13.07 1.344l17.82 21.402c.52.629.43 1.556-.19 2.082-.63.519-1.55.44-2.08-.188l-17.83-21.403c-2.21-2.663-6.22-3.08-8.95-.919l-20.64 16.374c-3.67 2.907-8.82 2.703-12.24-.479l-91.266-84.871c-2.218-2.066-5.262-2.718-8.133-1.736-2.871.974-4.884 3.347-5.388 6.332a8.084 8.084 0 0 0 2.415 7.205l97.402 92.453c.59.558.61 1.493.05 2.09-.29.306-.68.455-1.07.455l-.01-.008zM622.016 464.47h-50.623c-6.308 0-11.83-4.463-13.143-10.623l-24.368-79.205-53.478 3.009a18.652 18.652 0 0 0-7.684 2.129l-25.178 13.278a23.697 23.697 0 0 1-11.02 2.727h-18.688a12.583 12.583 0 0 1-9.14-3.882 12.567 12.567 0 0 1-3.555-9.263l1.211-33.895a12.659 12.659 0 0 1 7.221-10.999c6.465-3.096 19.357-10.513 32.996-25.378 17.288-18.841 16.454-58.008 15.841-86.607-.063-3.096-.134-6.074-.173-8.91l-15.519-32.834h-44.291c-.818 0-1.479-.66-1.479-1.477v-61.826c-18.641-44.895-109.15-81.076-110.062-81.437l-67.667-26.54a1.475 1.475 0 0 1-.834-1.918 1.475 1.475 0 0 1 1.911-.833l67.675 26.54c.236.095 23.44 9.311 48.641 24.067 33.987 19.893 55.247 39.834 63.184 59.272.071.181.11.37.11.558v60.64h43.748c.574 0 1.093.33 1.337.848l16.054 33.966c.094.188.141.401.141.613.04 2.923.103 6.002.173 9.208.622 29.102 1.479 68.952-16.612 88.665-13.277 14.465-25.759 22.149-33.9 26.046-3.288 1.579-5.419 4.809-5.545 8.446l-1.212 33.895a9.65 9.65 0 0 0 2.73 7.111 9.692 9.692 0 0 0 7.016 2.977h18.688a20.8 20.8 0 0 0 9.636-2.38l25.177-13.278a21.475 21.475 0 0 1 8.896-2.468l54.634-3.072a1.478 1.478 0 0 1 1.495 1.037l24.729 80.377a.803.803 0 0 1 .032.133c1.006 4.832 5.324 8.337 10.264 8.337h50.623c5.734 0 11.004-2.852 14.103-7.637 5.789-8.918 59.455-60.844 61.736-63.052.228-.228.527-.369.85-.409l19.058-2.286a93.158 93.158 0 0 1 9.525-1.886c60.203-8.595 77.924-21.504 88.094-34.17a1.478 1.478 0 0 1 2.305 1.847c-17.863 22.243-53.8 30.084-89.982 35.246a87.548 87.548 0 0 0-9.305 1.846c-.063.016-.126.032-.189.032l-18.657 2.239c-4.782 4.636-55.586 53.914-60.95 62.188-3.649 5.625-9.848 8.98-16.588 8.98l.008.008zm447.754-127.219c-2.45 0-4.81-.927-6.62-2.624L855.394 141.056c-43.913 37.933-36.315 86.638-29.606 129.647 2.368 15.195 4.609 29.549 4.609 42.836 0 2.372-.086 4.714-.267 6.953a1.479 1.479 0 0 1-2.949-.228 85.03 85.03 0 0 0 .251-6.725c0-13.059-2.226-27.303-4.578-42.381-6.882-44.101-14.677-94.078 31.612-133.206a1.487 1.487 0 0 1 1.966.047l208.728 194.475a6.725 6.725 0 0 0 5.47 1.775 6.698 6.698 0 0 0 4.83-3.095l10.01-15.997a6.684 6.684 0 0 0 .71-5.578c-.25-.778.19-1.603.96-1.855a1.49 1.49 0 0 1 1.86.967 9.628 9.628 0 0 1-1.02 8.03l-10.01 15.996a9.65 9.65 0 0 1-6.97 4.455c-.41.055-.83.079-1.25.079h.02zm317.89 240.579c-.4 0-.79-.158-1.07-.464l-124.3-131.203c-.07-.063-.12-.141-.18-.22a9.367 9.367 0 0 1-1.25-7.236 9.356 9.356 0 0 1 4.31-5.956l25.54-15.501a6.445 6.445 0 0 0 2.96-4.117 6.454 6.454 0 0 0-.89-4.989l-4.46-6.86a6.488 6.488 0 0 0-5.46-2.962h-55.99a9.46 9.46 0 0 1-7.29-3.409l-70.99-85.248a1.487 1.487 0 0 1 .19-2.082 1.485 1.485 0 0 1 2.08.188l71 85.248a6.499 6.499 0 0 0 5.01 2.349h55.99c3.21 0 6.19 1.611 7.94 4.306l4.46 6.859c1.41 2.161 1.86 4.738 1.29 7.26-.57 2.514-2.11 4.635-4.32 5.979l-25.54 15.502a6.467 6.467 0 0 0-2.96 4.093 6.454 6.454 0 0 0 .79 4.871l124.2 131.101c.56.589.53 1.524-.06 2.09a1.47 1.47 0 0 1-1.01.401h.01zm0 108.205c-.09 0-.18 0-.26-.023l-83.96-14.709a1.473 1.473 0 0 1-1.22-1.453v-37.933c-25.8-37.038-67.64-65.276-98.26-82.459-32.01-17.969-58.71-27.923-61.04-28.772l-38.13-4.133a1.454 1.454 0 0 1-.92-.471c-27.37-29.676-73.4-47.503-73.86-47.676-53.817-19.351-108.986-20.773-159.53-4.093l-83.697 66.485 4.821 15.549a1.41 1.41 0 0 1 0 .848c-.181.613-4.546 15.023-21.63 19.289-.464.11-.952 0-1.314-.306l-11.546-9.758-77.106 24.136a1.188 1.188 0 0 1-.37.063l-91.807 4.243c-.81.039-1.51-.59-1.541-1.407a1.467 1.467 0 0 1 1.408-1.54l91.618-4.235 77.696-24.325a1.49 1.49 0 0 1 1.4.283l11.578 9.79c13.489-3.701 17.87-14.402 18.649-16.657l-4.979-16.067a1.478 1.478 0 0 1 .496-1.595l84.696-67.279c.133-.11.291-.189.456-.244 51.244-16.978 107.168-15.58 161.742 4.047.49.188 46.73 18.086 74.62 48.037l37.75 4.093c.12.016.23.04.34.079.28.102 28.06 10.183 61.61 29.016 31.01 17.403 73.44 46.057 99.55 83.754.17.244.26.543.26.841v37.155l82.73 14.497c.8.141 1.34.903 1.2 1.704a1.479 1.479 0 0 1-1.45 1.218v.008zM9.344 652.408a1.477 1.477 0 0 1-.74-2.758c53.077-30.642 122.963-105.998 139.52-130.959 8.14-12.273 21.205-20.318 35.851-22.071 28.386-3.394 83.791-7.534 135.995 2.915.031 0 .063.016.094.024l36.3 9.798 6.402-8.816c.354-.479.96-.707 1.542-.566l26.043 6.262a1.477 1.477 0 0 1 1.093 1.768l-2.532 10.961 21.724 3.103 14.646-4.251c.307-.086.637-.078.936.04l62.696 23.602c.26.102.496.267.661.495l17.367 23.123a1.476 1.476 0 0 1-.299 2.066 1.474 1.474 0 0 1-2.069-.298l-17.107-22.785-61.831-23.28-14.481 4.195a1.644 1.644 0 0 1-.621.047l-23.628-3.37a1.435 1.435 0 0 1-1.007-.629 1.45 1.45 0 0 1-.22-1.163l2.564-11.102-23.66-5.688-6.418 8.839a1.486 1.486 0 0 1-1.581.558l-37.235-10.049c-51.787-10.356-106.814-6.246-135.02-2.868-13.781 1.65-26.075 9.216-33.736 20.774-16.675 25.134-87.056 101.024-140.51 131.878a1.486 1.486 0 0 1-.74.197v.008z"/><path fill="#000" d="M1387.66 686.035c-.09 0-.18 0-.26-.023l-83.96-14.709a1.473 1.473 0 0 1-1.22-1.453v-37.933c-25.8-37.038-67.64-65.276-98.26-82.459-32.01-17.969-58.71-27.923-61.04-28.772l-38.13-4.133a1.454 1.454 0 0 1-.92-.471c-27.37-29.676-73.4-47.503-73.86-47.676-53.817-19.351-108.986-20.773-159.53-4.093l-83.697 66.485 4.821 15.549a1.41 1.41 0 0 1 0 .848c-.181.613-4.546 15.023-21.63 19.289-.464.11-.952 0-1.314-.306l-11.546-9.758-77.106 24.136a1.188 1.188 0 0 1-.37.063l-91.807 4.243c-.81.039-1.51-.59-1.541-1.407a1.467 1.467 0 0 1 1.408-1.54l91.618-4.235 77.696-24.325a1.49 1.49 0 0 1 1.4.283l11.578 9.79c13.489-3.701 17.87-14.402 18.649-16.657l-4.979-16.067a1.478 1.478 0 0 1 .496-1.595l84.696-67.279c.133-.11.291-.189.456-.244 51.244-16.978 107.168-15.58 161.742 4.047.49.188 46.73 18.086 74.62 48.037l37.75 4.093c.12.016.23.04.34.079.28.102 28.06 10.183 61.61 29.016 31.01 17.403 73.44 46.057 99.55 83.754.17.244.26.543.26.841v37.155l82.73 14.497c.8.141 1.34.903 1.2 1.704a1.479 1.479 0 0 1-1.45 1.218v.008zM9.344 652.408a1.477 1.477 0 0 1-.74-2.758c53.077-30.642 122.963-105.998 139.52-130.959 8.14-12.273 21.205-20.318 35.851-22.071 28.386-3.394 83.791-7.534 135.995 2.915.031 0 .063.016.094.024l36.3 9.798 6.402-8.816c.354-.479.96-.707 1.542-.566l26.043 6.262a1.477 1.477 0 0 1 1.093 1.768l-2.532 10.961 21.724 3.103 14.646-4.251c.307-.086.637-.078.936.04l62.696 23.602c.26.102.496.267.661.495l17.367 23.123a1.476 1.476 0 0 1-.299 2.066 1.474 1.474 0 0 1-2.069-.298l-17.107-22.785-61.831-23.28-14.481 4.195a1.644 1.644 0 0 1-.621.047l-23.628-3.37a1.435 1.435 0 0 1-1.007-.629 1.45 1.45 0 0 1-.22-1.163l2.564-11.102-23.66-5.688-6.418 8.839a1.486 1.486 0 0 1-1.581.558l-37.235-10.049c-51.787-10.356-106.814-6.246-135.02-2.868-13.781 1.65-26.075 9.216-33.736 20.774-16.675 25.134-87.056 101.024-140.51 131.878a1.486 1.486 0 0 1-.74.197v.008z"/><path fill="#000" d="M706.374 560.717c-.677 0-1.29-.471-1.44-1.163l-29.236-133.269a1.48 1.48 0 0 1 1.125-1.76 1.486 1.486 0 0 1 1.762 1.124l29.236 133.269a1.48 1.48 0 0 1-1.125 1.76c-.11.023-.212.031-.314.031l-.008.008zm20.143-8.069c-.677 0-1.29-.471-1.44-1.163l-30.903-140.882a1.48 1.48 0 0 1 1.124-1.76 1.486 1.486 0 0 1 1.762 1.123l30.904 140.883a1.48 1.48 0 0 1-1.125 1.76c-.11.023-.212.031-.314.031l-.008.008zm-409.755-59.351a1.46 1.46 0 0 1-.991-.385 1.469 1.469 0 0 1-.103-2.082l84.02-92.437a1.473 1.473 0 0 1 2.085-.102 1.47 1.47 0 0 1 .102 2.082l-84.02 92.437a1.471 1.471 0 0 1-1.093.487zm-25.328-4.502c-.362 0-.716-.126-.999-.393a1.474 1.474 0 0 1-.086-2.082l105.909-115.127a1.475 1.475 0 0 1 2.171 1.995L292.52 488.316a1.492 1.492 0 0 1-1.086.479z"/><path fill="#4476EE" d="M1028.48 254.313c-5.83 0-10.57-4.738-10.57-10.56s4.74-10.559 10.57-10.559 10.57 4.737 10.57 10.559c0 5.822-4.74 10.56-10.57 10.56zm0-16.759c-3.42 0-6.2 2.782-6.2 6.199a6.206 6.206 0 0 0 6.2 6.199c3.42 0 6.21-2.781 6.21-6.199 0-3.417-2.79-6.199-6.21-6.199z"/><path fill="#4476EE" d="M1028.48 278.135c-.64 0-1.25-.283-1.66-.77l-15.54-18.33c-.05-.063-.11-.134-.16-.204a22.955 22.955 0 0 1-5.66-15.07c0-12.681 10.33-22.997 23.02-22.997 12.7 0 23.03 10.316 23.03 22.997 0 5.539-2.02 10.882-5.68 15.085-.04.071-.09.134-.14.197l-15.54 18.33c-.42.487-1.02.77-1.67.77v-.008zm-13.66-21.669 13.66 16.114 13.67-16.13c.07-.102.14-.196.22-.283a18.573 18.573 0 0 0 4.77-12.422c0-10.276-8.37-18.636-18.66-18.636-10.28 0-18.65 8.36-18.65 18.636 0 4.573 1.7 8.989 4.77 12.422.09.094.16.189.22.299zm50.36-22.589v-9.145c0-1.022.66-1.713 1.68-1.713 1.01 0 1.67.691 1.67 1.713v3.08l4.7-4.196c.36-.322.77-.526 1.39-.526.67 0 1.35.636 1.35 1.264 0 .629-.21 1.093-.91 1.721l-2.77 2.459 3.29 4.235c.55.7.72 1.037.72 1.517 0 .707-.73 1.296-1.57 1.296-.48 0-1.17-.244-1.55-.731l-3.28-4.211-1.38 1.234v2.003c0 1.021-.67 1.713-1.67 1.713-1 0-1.68-.692-1.68-1.713h.01zm12.3.204c0-.251.06-.652.24-1.123l2.96-7.37c.71-1.776 1.56-2.624 3.18-2.624 1.63 0 2.49.848 3.2 2.624l2.96 7.37c.18.471.24.872.24 1.123 0 .818-.72 1.548-1.57 1.548-.85 0-1.43-.385-1.68-1.068l-.53-1.415h-5.24l-.53 1.415c-.25.683-.81 1.068-1.68 1.068a1.57 1.57 0 0 1-1.57-1.548h.02zm7.84-4.085-1.45-3.897-1.45 3.897h2.9zm6.96 3.881v-9.145c0-1.022.66-1.713 1.67-1.713 1 0 1.67.691 1.67 1.713v9.145c0 1.021-.67 1.713-1.67 1.713-1.01 0-1.67-.692-1.67-1.713zm14.1 0v-7.362h-2.13c-.98 0-1.67-.676-1.67-1.642 0-.966.69-1.642 1.67-1.642h7.59c.99 0 1.68.676 1.68 1.642 0 .966-.69 1.642-1.68 1.642h-2.13v7.362c0 1.022-.66 1.713-1.67 1.713-1 0-1.66-.691-1.66-1.713zm6.67.204c0-.251.06-.652.24-1.123l2.96-7.37c.7-1.776 1.55-2.624 3.18-2.624 1.63 0 2.49.848 3.2 2.624l2.95 7.37c.19.471.25.872.25 1.123 0 .818-.72 1.548-1.57 1.548-.85 0-1.43-.385-1.68-1.068l-.53-1.415h-5.25l-.52 1.415c-.25.683-.81 1.068-1.69 1.068-.87 0-1.56-.723-1.56-1.548h.02zm7.84-4.085-1.45-3.897-1.46 3.897h2.91zm6.97 3.881v-9.145c0-1.022.67-1.713 1.68-1.713 1.01 0 1.67.691 1.67 1.713v3.08l4.7-4.196c.36-.322.77-.526 1.39-.526.67 0 1.35.636 1.35 1.264 0 .629-.21 1.093-.91 1.721l-2.77 2.459 3.29 4.235c.55.7.72 1.037.72 1.517 0 .707-.73 1.296-1.57 1.296-.48 0-1.17-.244-1.55-.731l-3.28-4.211-1.38 1.234v2.003c0 1.021-.67 1.713-1.67 1.713-1 0-1.68-.692-1.68-1.713h.01zm-63.27 16.177c0-3.755 2.51-6.348 6.12-6.348 2.13 0 3.71.597 4.9 2.004.38.447.54.903.54 1.335 0 .88-.71 1.619-1.59 1.619-.43 0-.96-.165-1.43-.589-.73-.66-1.41-1.006-2.37-1.006-1.62 0-2.74 1.241-2.74 2.985 0 1.745 1.12 2.955 2.74 2.955.95 0 1.64-.362 2.37-1.006.48-.424 1.01-.597 1.46-.597.88 0 1.57.746 1.57 1.618 0 .425-.15.872-.53 1.32-1.2 1.399-2.79 2.027-4.92 2.027-3.61 0-6.12-2.577-6.12-6.317zm14.1 4.558v-8.942c0-1.021.66-1.712 1.67-1.712h3.57c2.89 0 4.87 1.728 4.87 4.219 0 1.445-.66 2.624-1.77 3.37l1.44 2.09c.33.487.44.92.44 1.297 0 .746-.76 1.382-1.6 1.382-.56 0-1.05-.251-1.35-.707l-2.15-3.213h-1.79v2.208c0 1.021-.67 1.712-1.67 1.712-1.01 0-1.67-.691-1.67-1.712l.01.008zm5.46-5.359c.67 0 1.18-.432 1.18-1.068 0-.637-.51-1.069-1.18-1.069h-2.13v2.145h2.13v-.008zm7.26 2.011v-5.806c0-1.021.68-1.713 1.69-1.713 1.01 0 1.63.692 1.63 1.713v5.5c0 1.202.85 2.043 2.04 2.043 1.2 0 2.04-.841 2.04-2.043v-5.5c0-1.021.65-1.713 1.64-1.713.99 0 1.69.692 1.69 1.713v5.806c0 3.104-2.13 5.1-5.37 5.1s-5.36-1.996-5.36-5.1zm13.72 3.347v-9.145c0-1.021.66-1.713 1.67-1.713 1.01 0 1.67.692 1.67 1.713v9.145c0 1.022-.66 1.713-1.67 1.713-1.01 0-1.67-.691-1.67-1.713zm6.8.449c-.66-.472-.98-1.03-.98-1.619 0-.872.68-1.579 1.55-1.579.36 0 .75.141 1.09.353 1.01.637 2.07 1.053 2.98 1.053.9 0 1.33-.291 1.33-.715 0-.377-.27-.558-.8-.66l-2.47-.495c-2.18-.44-3.27-1.618-3.27-3.575 0-2.467 1.93-4.109 4.93-4.109 1.81 0 3.16.652 4 1.226.72.487.94 1.084.94 1.665 0 .865-.52 1.564-1.43 1.564-.52 0-1-.22-1.54-.534-.57-.338-1.49-.825-2.36-.825-.57 0-1.02.212-1.02.675 0 .44.3.582.93.723l2.35.542c1.79.417 3.22 1.234 3.22 3.489 0 2.553-2.04 4.14-5.13 4.14-1.91 0-3.25-.534-4.34-1.312l.02-.007zm12.12-.661v-8.729c0-1.021.65-1.712 1.67-1.712h5.99c.99 0 1.68.675 1.68 1.642 0 .966-.69 1.642-1.68 1.642h-4.33v1.225h3.98c.92 0 1.58.645 1.58 1.54 0 .896-.68 1.517-1.58 1.517h-3.98v1.288h4.35c.99 0 1.68.676 1.68 1.642 0 .967-.69 1.642-1.68 1.642h-6.01c-1.02 0-1.67-.691-1.67-1.712v.015zm19.74.212v-7.361h-2.13c-.98 0-1.67-.676-1.67-1.643 0-.966.69-1.642 1.67-1.642h7.59c.98 0 1.68.676 1.68 1.642 0 .967-.7 1.643-1.68 1.643h-2.13v7.361c0 1.022-.66 1.713-1.67 1.713-1 0-1.67-.691-1.67-1.713h.01zm9.24-.212v-8.729c0-1.021.66-1.712 1.67-1.712h6c.99 0 1.67.675 1.67 1.642 0 .966-.68 1.642-1.67 1.642h-4.33v1.225h3.98c.91 0 1.57.645 1.57 1.54 0 .896-.67 1.517-1.57 1.517h-3.98v1.288h4.34c.99 0 1.68.676 1.68 1.642 0 .967-.69 1.642-1.68 1.642h-6.01c-1.01 0-1.67-.691-1.67-1.712v.015zm12.19.213v-8.942c0-1.021.66-1.712 1.67-1.712h3.57c2.89 0 4.87 1.728 4.87 4.219 0 1.445-.66 2.624-1.77 3.37l1.43 2.09c.34.487.45.92.45 1.297 0 .746-.76 1.382-1.6 1.382-.56 0-1.05-.251-1.35-.707l-2.15-3.213h-1.8v2.208c0 1.021-.66 1.712-1.66 1.712-1.01 0-1.67-.691-1.67-1.712l.01.008zm5.46-5.359c.67 0 1.18-.432 1.18-1.068 0-.637-.51-1.069-1.18-1.069h-2.14v2.145h2.14v-.008zm7.54 5.303v-8.949c0-1.139.75-1.862 1.8-1.862.98 0 1.45.464 2.04 1.517l2.95 5.295 2.94-5.295c.59-1.053 1.05-1.517 2.04-1.517 1.05 0 1.8.723 1.8 1.862v8.949c0 1.038-.69 1.768-1.64 1.768-.94 0-1.64-.77-1.64-1.768v-4.14l-1.64 3.033c-.75 1.367-1.09 1.657-1.85 1.657-.77 0-1.12-.298-1.85-1.657l-1.64-3.033v4.14c0 .998-.68 1.768-1.64 1.768-.97 0-1.64-.723-1.64-1.768h-.03zm16.77.055v-9.145c0-1.021.66-1.713 1.67-1.713 1 0 1.66.692 1.66 1.713v9.145c0 1.022-.66 1.713-1.66 1.713-1.01 0-1.67-.691-1.67-1.713zm6.54 0v-8.996c0-1.155.65-1.862 1.73-1.862.74 0 1.17.291 1.94 1.312l3.95 5.249v-4.848c0-1.021.66-1.713 1.66-1.713 1.01 0 1.67.692 1.67 1.713v8.988c0 1.147-.66 1.87-1.68 1.87-.69 0-1.17-.298-1.86-1.178l-4.08-5.202v4.667c0 1.022-.66 1.713-1.67 1.713-1 0-1.66-.691-1.66-1.713zm12.97.213c0-.252.07-.653.25-1.124l2.95-7.37c.71-1.775 1.56-2.624 3.19-2.624s2.49.849 3.19 2.624l2.96 7.37c.19.471.24.872.24 1.124 0 .817-.71 1.547-1.56 1.547-.85 0-1.43-.385-1.68-1.068l-.53-1.414h-5.25l-.52 1.414c-.26.683-.81 1.068-1.69 1.068-.87 0-1.56-.722-1.56-1.547h.01zm7.84-4.086-1.44-3.897-1.46 3.897h2.9zm6.97 3.661v-8.941c0-1.021.66-1.713 1.66-1.713 1.01 0 1.67.692 1.67 1.713v7.362h4.02c.99 0 1.68.676 1.68 1.642 0 .967-.69 1.642-1.68 1.642h-5.69c-1 0-1.66-.691-1.66-1.713v.008zm-163.87 21.395c-.67-.472-.99-1.029-.99-1.619 0-.872.69-1.579 1.56-1.579.36 0 .75.142 1.08.354 1.02.636 2.08 1.053 2.99 1.053.9 0 1.33-.291 1.33-.715 0-.378-.27-.558-.8-.66l-2.48-.495c-2.18-.44-3.26-1.619-3.26-3.575 0-2.467 1.93-4.11 4.93-4.11 1.8 0 3.15.653 4 1.226.72.487.94 1.084.94 1.666 0 .864-.52 1.563-1.43 1.563-.52 0-1.01-.22-1.54-.534-.58-.338-1.49-.825-2.36-.825-.58 0-1.03.212-1.03.676 0 .44.3.581.93.723l2.35.542c1.8.416 3.22 1.233 3.22 3.488 0 2.554-2.04 4.141-5.12 4.141-1.91 0-3.25-.534-4.34-1.312l.02-.008zm19.72-.448v-3.033h-4.28v3.033c0 1.021-.66 1.713-1.66 1.713-1.01 0-1.67-.692-1.67-1.713v-9.145c0-1.022.66-1.713 1.67-1.713 1 0 1.66.691 1.66 1.713v2.977h4.28v-2.977c0-1.022.66-1.713 1.67-1.713 1.01 0 1.67.691 1.67 1.713v9.145c0 1.021-.66 1.713-1.67 1.713-1.01 0-1.67-.692-1.67-1.713zm6.54 0v-9.145c0-1.022.66-1.713 1.67-1.713 1 0 1.66.691 1.66 1.713v9.145c0 1.021-.66 1.713-1.66 1.713-1.01 0-1.67-.692-1.67-1.713zm6.53 0v-8.996c0-1.155.66-1.862 1.73-1.862.75 0 1.18.29 1.95 1.312l3.95 5.248v-4.847c0-1.022.66-1.713 1.66-1.713 1.01 0 1.67.691 1.67 1.713v8.988c0 1.147-.66 1.87-1.68 1.87-.69 0-1.17-.299-1.86-1.179l-4.08-5.201v4.667c0 1.021-.66 1.713-1.67 1.713-1 0-1.67-.692-1.67-1.713zm13.57-4.518c0-3.763 2.79-6.387 6.52-6.387 1.85 0 3.24.581 4.16 1.225.75.527.96 1.037.96 1.666 0 .959-.74 1.438-1.47 1.438-.56 0-1-.142-1.52-.44-.51-.291-1.12-.613-2.26-.613-1.73 0-2.96 1.296-2.96 3.088 0 1.791 1.17 3.04 3.08 3.04 1.27 0 2-.392 2.14-1.225h-1.95c-.89 0-1.62-.66-1.62-1.54 0-1.037.73-1.572 1.62-1.572h3.77c.84 0 1.63.535 1.63 1.737 0 3.991-2.44 5.861-5.71 5.861-3.86 0-6.39-2.538-6.39-6.27v-.008zm19.57 4.518v-8.941c0-1.022.65-1.713 1.67-1.713h6.02c1 0 1.69.676 1.69 1.642 0 .966-.69 1.642-1.69 1.642h-4.35v1.54h3.84c.99 0 1.68.676 1.68 1.642 0 .967-.69 1.642-1.68 1.642h-3.84v2.53c0 1.022-.66 1.713-1.67 1.713-1.01 0-1.67-.691-1.67-1.713v.016zm11.4-3.339v-5.806c0-1.022.68-1.713 1.69-1.713 1.01 0 1.64.691 1.64 1.713v5.499c0 1.203.84 2.043 2.03 2.043 1.2 0 2.04-.84 2.04-2.043v-5.499c0-1.022.65-1.713 1.64-1.713 1 0 1.69.691 1.69 1.713v5.806c0 3.103-2.13 5.099-5.37 5.099s-5.36-1.996-5.36-5.099zm13.73 3.339v-8.996c0-1.155.65-1.862 1.73-1.862.74 0 1.17.29 1.94 1.312l3.95 5.248v-4.847c0-1.022.66-1.713 1.66-1.713 1.01 0 1.67.691 1.67 1.713v8.988c0 1.147-.66 1.87-1.68 1.87-.69 0-1.17-.299-1.86-1.179l-4.08-5.201v4.667c0 1.021-.66 1.713-1.67 1.713-1 0-1.66-.692-1.66-1.713zm13.56-4.518c0-3.763 2.79-6.387 6.52-6.387 1.85 0 3.24.581 4.16 1.225.75.527.96 1.037.96 1.666 0 .959-.74 1.438-1.47 1.438-.56 0-1-.142-1.52-.44-.51-.291-1.12-.613-2.26-.613-1.73 0-2.96 1.296-2.96 3.088 0 1.791 1.17 3.04 3.08 3.04 1.27 0 2-.392 2.14-1.225h-1.95c-.89 0-1.62-.66-1.62-1.54 0-1.037.73-1.572 1.62-1.572h3.77c.84 0 1.63.535 1.63 1.737 0 3.991-2.44 5.861-5.71 5.861-3.86 0-6.39-2.538-6.39-6.27v-.008zm19.57 4.518v-8.941c0-1.022.66-1.713 1.67-1.713h3.58c2.88 0 4.87 1.728 4.87 4.219 0 1.446-.66 2.624-1.77 3.371l1.43 2.09c.34.487.45.919.45 1.296 0 .746-.77 1.383-1.61 1.383-.56 0-1.04-.252-1.35-.707l-2.15-3.214h-1.79v2.208c0 1.021-.66 1.713-1.67 1.713-1.01 0-1.67-.692-1.67-1.713l.01.008zm5.46-5.359c.68 0 1.18-.432 1.18-1.068 0-.637-.5-1.069-1.18-1.069h-2.13v2.145h2.13v-.008zm7.55 5.147v-8.729c0-1.022.65-1.713 1.67-1.713h3.89c3.5 0 5.9 2.483 5.9 6.073 0 3.591-2.4 6.074-5.9 6.074h-3.89c-1.02 0-1.67-.692-1.67-1.713v.008zm5.56-1.54c1.37 0 2.36-1.21 2.36-2.829 0-1.618-.99-2.828-2.36-2.828h-2.23v5.657h2.23zm7.47 4.761c0-.471.33-.691.67-.864.41-.204.63-.354.77-.613-.87-.157-1.4-.746-1.4-1.579 0-1.03.81-1.799 1.87-1.799 1.2 0 1.94.989 1.94 2.247 0 1.799-1.67 3.347-2.97 3.347-.6 0-.88-.323-.88-.747v.008zm-150.49 17.725v-9.145c0-1.021.66-1.713 1.68-1.713 1.01 0 1.67.692 1.67 1.713v3.08l4.7-4.196c.36-.322.77-.526 1.39-.526.67 0 1.35.636 1.35 1.265 0 .628-.21 1.092-.91 1.721l-2.77 2.459 3.29 4.235c.55.699.72 1.037.72 1.516 0 .707-.73 1.296-1.57 1.296-.48 0-1.17-.243-1.55-.73l-3.28-4.212-1.38 1.234v2.003c0 1.022-.67 1.713-1.67 1.713-1 0-1.68-.691-1.68-1.713h.01zm12.51-4.572c0-3.717 2.6-6.333 6.37-6.333 3.78 0 6.36 2.616 6.36 6.333 0 3.716-2.59 6.332-6.36 6.332-3.77 0-6.37-2.624-6.37-6.332zm6.37 2.97c1.72 0 2.94-1.25 2.94-2.97 0-1.721-1.22-2.97-2.94-2.97-1.71 0-2.94 1.249-2.94 2.97 0 1.72 1.23 2.97 2.94 2.97zm9.51.29-1.54-7.244c-.05-.243-.05-.471-.05-.597 0-.958.78-1.705 1.79-1.705.87 0 1.51.534 1.67 1.375l1.3 7.37 1.63-6.458c.34-1.36 1.24-2.287 2.49-2.287 1.25 0 2.15.927 2.49 2.287l1.64 6.458 1.3-7.37c.15-.841.79-1.375 1.67-1.375 1 0 1.79.747 1.79 1.705 0 .126 0 .354-.05.597l-1.55 7.236c-.37 1.776-1.48 3.041-3.06 3.041-1.57 0-2.64-1.281-3.09-3.253l-1.13-4.997-1.14 4.997c-.45 1.965-1.53 3.253-3.1 3.253s-2.68-1.249-3.06-3.033zm18.54 1.108v-8.941c0-1.021.66-1.713 1.67-1.713 1 0 1.66.692 1.66 1.713v7.362h4.02c.99 0 1.69.676 1.69 1.642 0 .966-.7 1.642-1.69 1.642h-5.68c-1.01 0-1.67-.691-1.67-1.713v.008zm10.17-4.368c0-3.717 2.6-6.333 6.37-6.333 3.78 0 6.36 2.616 6.36 6.333 0 3.716-2.59 6.332-6.36 6.332-3.77 0-6.37-2.624-6.37-6.332zm6.37 2.97c1.72 0 2.94-1.25 2.94-2.97 0-1.721-1.22-2.97-2.94-2.97-1.71 0-2.94 1.249-2.94 2.97 0 1.72 1.23 2.97 2.94 2.97zm8.39-2.97c0-3.717 2.59-6.333 6.37-6.333 3.77 0 6.36 2.616 6.36 6.333 0 3.716-2.6 6.332-6.36 6.332-3.77 0-6.37-2.624-6.37-6.332zm6.37 2.97c1.71 0 2.94-1.25 2.94-2.97 0-1.721-1.23-2.97-2.94-2.97-1.72 0-2.95 1.249-2.95 2.97 0 1.72 1.23 2.97 2.95 2.97zm8.97 1.602v-8.996c0-1.155.65-1.862 1.73-1.862.75 0 1.17.291 1.94 1.312l3.95 5.249v-4.848c0-1.021.66-1.713 1.67-1.713 1.01 0 1.67.692 1.67 1.713v8.988c0 1.147-.66 1.87-1.69 1.87-.69 0-1.16-.298-1.85-1.178l-4.08-5.202v4.667c0 1.022-.66 1.713-1.67 1.713-1.01 0-1.67-.691-1.67-1.713zm18.42-4.557c0-3.755 2.51-6.348 6.13-6.348 2.13 0 3.7.597 4.9 2.004.38.447.53.903.53 1.335 0 .88-.7 1.619-1.58 1.619-.44 0-.96-.165-1.44-.59-.72-.659-1.4-1.005-2.36-1.005-1.62 0-2.75 1.241-2.75 2.985 0 1.745 1.13 2.955 2.75 2.955.95 0 1.63-.362 2.36-1.006.48-.424 1.02-.597 1.47-.597.88 0 1.57.746 1.57 1.618 0 .425-.15.872-.53 1.32-1.21 1.399-2.79 2.027-4.92 2.027-3.62 0-6.13-2.577-6.13-6.317zm14.11 4.557v-9.145c0-1.021.66-1.713 1.67-1.713 1.01 0 1.67.692 1.67 1.713v9.145c0 1.022-.66 1.713-1.67 1.713-1.01 0-1.67-.691-1.67-1.713zm9.24 0v-7.361h-2.13c-.98 0-1.67-.676-1.67-1.643 0-.966.69-1.642 1.67-1.642h7.59c.99 0 1.68.676 1.68 1.642 0 .967-.69 1.643-1.68 1.643h-2.13v7.361c0 1.022-.66 1.713-1.67 1.713-1 0-1.66-.691-1.66-1.713zm8.32-9.428c0-.809.65-1.438 1.55-1.438.89 0 1.27.582 1.67 1.155l2.37 3.481 2.37-3.481c.38-.573.79-1.155 1.67-1.155.87 0 1.55.621 1.55 1.438 0 .33-.11.597-.25.794l-3.66 5.28v3.347c0 1.021-.66 1.712-1.68 1.712-1.01 0-1.67-.691-1.67-1.712v-3.34l-3.66-5.295a1.357 1.357 0 0 1-.25-.794l-.01.008z"/><path fill="#000" d="M113.335 384.534c-17.91 0-32.477-14.551-32.477-32.442 0-17.89 14.567-32.441 32.477-32.441 17.91 0 32.477 14.551 32.477 32.441 0 17.891-14.567 32.442-32.477 32.442zm0-60.522c-15.503 0-28.111 12.594-28.111 28.08 0 15.486 12.608 28.081 28.111 28.081s28.112-12.595 28.112-28.081c0-15.486-12.609-28.08-28.112-28.08z"/><path fill="#000" d="M125.786 338.343c.338 0 .677.016 1.015.016.094 0 .244.157.259.251.221 1.367 0 2.671-.849 3.779-1.031 1.359-2.147 2.656-3.217 3.984a257.4 257.4 0 0 0-2.572 3.276.516.516 0 0 0-.079.401c.393 1.5.802 2.993 1.204 4.486.472 1.791.936 3.583 1.408 5.366.416 1.58.857 3.159 1.266 4.746a.87.87 0 0 1-.228.872c-.567.605-1.086 1.249-1.613 1.886-.165.204-.346.298-.519.298-.196 0-.385-.133-.519-.393l-3.044-6.01c-.881-1.744-1.762-3.481-2.643-5.225-.291-.566-.59-1.124-.904-1.729-.527.464-1.007.896-1.495 1.32-1.014.896-2.029 1.792-3.036 2.695-.487.432-.959.872-1.447 1.305-.393.345-.787.691-1.172 1.037-.165.149-.275.275-.22.565.118.613.102 1.242.157 1.862.079.818.181 1.635.275 2.452.032.267.04.542.071.809.055.393-.063.707-.385.959-.197.157-.354.361-.543.526a.622.622 0 0 1-.409.173c-.22 0-.425-.142-.527-.409-.739-1.838-1.487-3.669-2.226-5.507-.11-.268-.267-.44-.543-.55-1.84-.739-3.673-1.485-5.513-2.232-.472-.188-.575-.62-.228-.99.157-.165.346-.306.48-.495.22-.306.495-.4.794-.4a2.6 2.6 0 0 1 .487.055c.3.055.606.062.913.094.912.094 1.825.188 2.737.275.464.039.936.055 1.4.071a.416.416 0 0 0 .26-.118c.401-.432.794-.88 1.187-1.32.441-.503.873-1.014 1.322-1.517.857-.974 1.714-1.948 2.58-2.915.432-.487.873-.958 1.329-1.461-.087-.055-.15-.11-.22-.141-1.998-1.006-3.996-2.02-5.994-3.025-1.809-.912-3.626-1.831-5.435-2.75-.456-.228-.897-.472-1.345-.707-.401-.212-.472-.637-.134-.943.559-.495 1.196-.912 1.691-1.469.307-.338.614-.456.936-.456.244 0 .496.063.763.133 1.841.511 3.681.998 5.522 1.493 1.699.456 3.406.896 5.113 1.344 1.085.291 2.186.558 3.256.896a.838.838 0 0 0 .22.039c.268 0 .441-.173.629-.322 1.07-.825 2.132-1.658 3.186-2.499a339.66 339.66 0 0 0 2.627-2.137c.897-.731 1.754-1.548 2.957-1.713a7.175 7.175 0 0 1 1.007-.055m0-4.352c-.598 0-1.101.031-1.589.094-2.304.306-3.83 1.579-4.845 2.412l-.275.228-.897.73c-.566.464-1.132.928-1.707 1.383-.66.527-1.29 1.022-1.895 1.501-.291-.079-.582-.149-.865-.228l-.7-.181c-.795-.212-1.597-.416-2.392-.628-.904-.236-1.809-.472-2.713-.715l-.315-.087a451.3 451.3 0 0 1-5.16-1.39c-.527-.15-1.164-.299-1.934-.299-1.605 0-3.092.676-4.193 1.909-.07.079-.33.283-.511.433-.252.196-.535.424-.834.691-1.211 1.084-1.825 2.671-1.636 4.243.189 1.587 1.164 2.993 2.612 3.771.48.259.951.511 1.439.754 1.817.92 3.626 1.839 5.443 2.75l1.172.589-.173.197c-.236.267-.472.542-.708.809-.157.181-.315.369-.48.55l-1.148-.118-.866-.086c-.133-.016-.275-.024-.409-.032-.062 0-.118 0-.18-.015a7.175 7.175 0 0 0-1.251-.126c-1.62 0-3.107.699-4.122 1.941a5.86 5.86 0 0 0-.314.314c-1.156 1.218-1.636 2.883-1.29 4.471.346 1.587 1.486 2.914 3.044 3.551l1.911.778 2.265.919c.331.833.669 1.658 1.007 2.491l.692 1.705c.771 1.901 2.565 3.134 4.57 3.134a4.94 4.94 0 0 0 3.304-1.272c.22-.197.393-.377.511-.495 1.424-1.21 2.1-2.955 1.848-4.824 0-.063-.007-.134-.015-.197-.016-.165-.024-.338-.047-.503a38.391 38.391 0 0 0-.111-.943c-.055-.479-.11-.958-.157-1.437l.488-.44c.251-.228.503-.456.755-.676.102-.094.212-.189.314-.283.048.094.095.181.142.275l.834 1.65.409.817c.873 1.737 1.754 3.465 2.635 5.201.865 1.713 2.556 2.782 4.404 2.782 1.495 0 2.919-.699 3.902-1.909.464-.574.952-1.163 1.416-1.666 1.258-1.352 1.722-3.151 1.258-4.934-.252-.982-.519-1.957-.779-2.931l-.495-1.838c-.228-.873-.456-1.745-.692-2.617-.244-.919-.48-1.83-.724-2.75-.165-.628-.338-1.257-.503-1.885-.071-.252-.134-.495-.205-.747.464-.589.913-1.155 1.345-1.697.378-.471.755-.935 1.141-1.398a89.26 89.26 0 0 0 2.139-2.672c1.526-1.995 2.108-4.455 1.683-7.102-.354-2.208-2.289-3.897-4.507-3.929h-.354c-.243-.016-.479-.016-.723-.016l.031-.007zm-93.411 43.126a2.176 2.176 0 0 1-1.542-.636L7.984 353.64a2.166 2.166 0 0 1-.637-1.54c0-.581.228-1.131.637-1.54l22.841-22.816a2.185 2.185 0 0 1 3.084 0 2.18 2.18 0 0 1 0 3.08l-21.3 21.276 21.3 21.277a2.175 2.175 0 0 1-1.542 3.716z"/><path fill="#000" d="M70.775 354.277H20.946a2.177 2.177 0 1 1 0-4.353h49.836a2.177 2.177 0 1 1 0 4.353h-.007zm94.944-18.338v-3.033h-4.279v3.033c0 1.021-.66 1.712-1.667 1.712-1.007 0-1.668-.691-1.668-1.712v-9.146c0-1.021.661-1.713 1.668-1.713s1.667.692 1.667 1.713v2.978h4.279v-2.978c0-1.021.661-1.713 1.668-1.713s1.667.692 1.667 1.713v9.146c0 1.021-.66 1.712-1.667 1.712-1.007 0-1.668-.691-1.668-1.712zm5.947-4.573c0-3.716 2.596-6.333 6.371-6.333 3.776 0 6.363 2.617 6.363 6.333s-2.595 6.333-6.363 6.333c-3.767 0-6.371-2.625-6.371-6.333zm6.371 2.97c1.715 0 2.942-1.249 2.942-2.97s-1.227-2.97-2.942-2.97-2.942 1.249-2.942 2.97 1.227 2.97 2.942 2.97zm8.975 1.603v-8.997c0-1.155.653-1.862 1.73-1.862.747 0 1.172.291 1.943 1.312l3.948 5.249v-4.848c0-1.021.661-1.713 1.668-1.713s1.667.692 1.667 1.713v8.988c0 1.148-.66 1.87-1.683 1.87-.692 0-1.164-.298-1.856-1.178l-4.082-5.201v4.667c0 1.021-.661 1.712-1.668 1.712s-1.667-.691-1.667-1.712zm13.568-4.518c0-3.764 2.784-6.388 6.521-6.388 1.848 0 3.232.582 4.16 1.226.748.526.96 1.037.96 1.666 0 .958-.747 1.437-1.471 1.437-.566 0-.999-.141-1.518-.44-.519-.29-1.125-.612-2.265-.612-1.731 0-2.958 1.296-2.958 3.087 0 1.792 1.172 3.041 3.076 3.041 1.274 0 2.006-.393 2.139-1.226h-1.942c-.897 0-1.621-.66-1.621-1.54 0-1.037.724-1.571 1.621-1.571h3.767c.834 0 1.628.534 1.628 1.736 0 3.992-2.438 5.862-5.71 5.862-3.862 0-6.387-2.538-6.387-6.27v-.008zm19.569 4.518v-9.146c0-1.021.669-1.713 1.684-1.713 1.014 0 1.667.692 1.667 1.713v3.08l4.704-4.196c.362-.322.771-.526 1.392-.526.669 0 1.345.636 1.345 1.265 0 .629-.204 1.092-.912 1.721l-2.769 2.459 3.296 4.235c.55.699.715 1.037.715 1.516 0 .707-.731 1.297-1.565 1.297-.48 0-1.172-.244-1.557-.731l-3.272-4.211-1.385 1.233v2.004c0 1.021-.668 1.712-1.667 1.712s-1.683-.691-1.683-1.712h.007zm12.514-4.573c0-3.716 2.596-6.333 6.371-6.333 3.776 0 6.363 2.617 6.363 6.333s-2.595 6.333-6.363 6.333c-3.767 0-6.371-2.625-6.371-6.333zm6.371 2.97c1.715 0 2.942-1.249 2.942-2.97s-1.227-2.97-2.942-2.97-2.942 1.249-2.942 2.97 1.227 2.97 2.942 2.97zm8.975 1.603v-8.997c0-1.155.653-1.862 1.73-1.862.747 0 1.172.291 1.943 1.312l3.949 5.249v-4.848c0-1.021.66-1.713 1.667-1.713 1.007 0 1.667.692 1.667 1.713v8.988c0 1.148-.66 1.87-1.683 1.87-.692 0-1.164-.298-1.856-1.178l-4.082-5.201v4.667c0 1.021-.661 1.712-1.668 1.712s-1.667-.691-1.667-1.712zm13.568-4.518c0-3.764 2.785-6.388 6.521-6.388 1.848 0 3.232.582 4.161 1.226.747.526.959 1.037.959 1.666 0 .958-.747 1.437-1.471 1.437-.566 0-.999-.141-1.518-.44-.519-.29-1.125-.612-2.265-.612-1.73 0-2.957 1.296-2.957 3.087 0 1.792 1.171 3.041 3.075 3.041 1.274 0 2.006-.393 2.139-1.226h-1.942c-.897 0-1.621-.66-1.621-1.54 0-1.037.724-1.571 1.621-1.571h3.767c.834 0 1.628.534 1.628 1.736 0 3.992-2.438 5.862-5.71 5.862-3.862 0-6.387-2.538-6.387-6.27v-.008zm-103.464 25.252v-9.145c0-1.022.661-1.713 1.668-1.713s1.667.691 1.667 1.713v9.145c0 1.021-.66 1.713-1.667 1.713-1.007 0-1.668-.692-1.668-1.713zm6.544 0v-8.996c0-1.155.653-1.862 1.731-1.862.747 0 1.172.29 1.942 1.312l3.949 5.248v-4.847c0-1.022.661-1.713 1.667-1.713 1.007 0 1.668.691 1.668 1.713v8.988c0 1.147-.661 1.87-1.683 1.87-.692 0-1.164-.299-1.857-1.179l-4.082-5.201v4.667c0 1.021-.66 1.713-1.667 1.713-1.007 0-1.668-.692-1.668-1.713zm16.857 0v-7.362h-2.132c-.983 0-1.675-.676-1.675-1.642 0-.966.692-1.642 1.675-1.642h7.591c.983 0 1.675.676 1.675 1.642 0 .966-.692 1.642-1.675 1.642h-2.132v7.362c0 1.021-.661 1.713-1.667 1.713-1.007 0-1.668-.692-1.668-1.713h.008zm9.242-.212v-8.729c0-1.022.653-1.713 1.667-1.713h5.994c.991 0 1.675.676 1.675 1.642 0 .967-.684 1.642-1.675 1.642h-4.326v1.226h3.98c.912 0 1.573.644 1.573 1.54s-.677 1.516-1.573 1.516h-3.98v1.289h4.342c.991 0 1.683.676 1.683 1.642 0 .966-.692 1.642-1.683 1.642h-6.01c-1.014 0-1.667-.691-1.667-1.713v.016zm12.184.212v-8.941c0-1.022.66-1.713 1.667-1.713h3.579c2.886 0 4.869 1.729 4.869 4.219 0 1.446-.661 2.624-1.77 3.371l1.431 2.09c.339.487.449.919.449 1.296 0 .747-.763 1.383-1.605 1.383a1.59 1.59 0 0 1-1.353-.707l-2.147-3.214h-1.793v2.208c0 1.022-.661 1.713-1.668 1.713s-1.667-.691-1.667-1.713l.008.008zm5.458-5.358c.677 0 1.18-.433 1.18-1.069 0-.636-.503-1.068-1.18-1.068h-2.131v2.144h2.131v-.007zm7.543 5.358v-8.996c0-1.155.653-1.862 1.731-1.862.747 0 1.172.29 1.943 1.312l3.948 5.248v-4.847c0-1.022.661-1.713 1.668-1.713 1.006 0 1.667.691 1.667 1.713v8.988c0 1.147-.661 1.87-1.683 1.87-.692 0-1.164-.299-1.856-1.179l-4.083-5.201v4.667c0 1.021-.66 1.713-1.667 1.713-1.007 0-1.668-.692-1.668-1.713zm12.978.212c0-.251.063-.652.244-1.123l2.957-7.37c.708-1.776 1.558-2.624 3.186-2.624s2.485.848 3.193 2.624l2.958 7.37c.189.471.244.872.244 1.123 0 .817-.716 1.548-1.566 1.548-.849 0-1.431-.385-1.683-1.069l-.527-1.414h-5.246l-.527 1.414c-.252.684-.81 1.069-1.683 1.069a1.571 1.571 0 0 1-1.566-1.548h.016zm7.842-4.085-1.447-3.897-1.455 3.897h2.902zm8.274 3.873v-7.362h-2.131c-.983 0-1.675-.676-1.675-1.642 0-.966.692-1.642 1.675-1.642h7.59c.983 0 1.675.676 1.675 1.642 0 .966-.692 1.642-1.675 1.642h-2.131v7.362c0 1.021-.661 1.713-1.668 1.713s-1.667-.692-1.667-1.713h.007zm9.242 0v-9.145c0-1.022.661-1.713 1.668-1.713s1.667.691 1.667 1.713v9.145c0 1.021-.66 1.713-1.667 1.713-1.007 0-1.668-.692-1.668-1.713zm5.947-4.573c0-3.716 2.595-6.332 6.371-6.332 3.775 0 6.363 2.616 6.363 6.332 0 3.717-2.596 6.333-6.363 6.333-3.768 0-6.371-2.624-6.371-6.333zm6.371 2.97c1.714 0 2.941-1.249 2.941-2.97 0-1.72-1.227-2.97-2.941-2.97-1.715 0-2.942 1.25-2.942 2.97 0 1.721 1.227 2.97 2.942 2.97zm8.974 1.603v-8.996c0-1.155.653-1.862 1.731-1.862.747 0 1.172.29 1.943 1.312l3.948 5.248v-4.847c0-1.022.661-1.713 1.668-1.713 1.006 0 1.667.691 1.667 1.713v8.988c0 1.147-.661 1.87-1.683 1.87-.692 0-1.164-.299-1.856-1.179l-4.083-5.201v4.667c0 1.021-.66 1.713-1.667 1.713-1.007 0-1.668-.692-1.668-1.713zm12.979.212c0-.251.063-.652.244-1.123l2.957-7.37c.708-1.776 1.558-2.624 3.186-2.624s2.485.848 3.193 2.624l2.958 7.37c.188.471.243.872.243 1.123 0 .817-.715 1.548-1.565 1.548-.849 0-1.431-.385-1.683-1.069l-.527-1.414h-5.246l-.527 1.414c-.252.684-.81 1.069-1.684 1.069a1.57 1.57 0 0 1-1.565-1.548h.016zm7.842-4.085-1.447-3.897-1.455 3.897h2.902zm6.961 3.661v-8.941c0-1.022.66-1.713 1.667-1.713 1.007 0 1.668.691 1.668 1.713v7.362h4.019c.991 0 1.683.675 1.683 1.642 0 .966-.692 1.642-1.683 1.642h-5.687c-1.007 0-1.667-.692-1.667-1.713v.008zm-146.417 21.158c0-.251.063-.652.244-1.123l2.957-7.37c.708-1.776 1.557-2.624 3.186-2.624 1.628 0 2.485.848 3.193 2.624l2.957 7.37c.189.471.244.872.244 1.123 0 .818-.716 1.548-1.565 1.548-.85 0-1.432-.385-1.683-1.068l-.527-1.414h-5.247l-.527 1.414c-.251.683-.81 1.068-1.683 1.068a1.57 1.57 0 0 1-1.565-1.548h.016zm7.842-4.085-1.448-3.897-1.455 3.897h2.903zm6.968 3.873v-9.145c0-1.022.661-1.713 1.668-1.713 1.006 0 1.667.691 1.667 1.713v9.145c0 1.022-.661 1.713-1.667 1.713-1.007 0-1.668-.691-1.668-1.713zm6.536 0v-8.941c0-1.021.661-1.713 1.668-1.713h3.579c2.886 0 4.868 1.729 4.868 4.22 0 1.445-.66 2.624-1.769 3.37l1.431 2.09c.338.487.449.919.449 1.297 0 .746-.763 1.382-1.605 1.382a1.59 1.59 0 0 1-1.353-.707l-2.147-3.213h-1.794v2.208c0 1.021-.66 1.712-1.667 1.712-1.007 0-1.668-.691-1.668-1.712l.008.007zm5.459-5.358c.676 0 1.18-.432 1.18-1.069 0-.636-.504-1.068-1.18-1.068h-2.132v2.145h2.132v-.008zm7.551 5.358v-8.941c0-1.021.661-1.713 1.668-1.713h3.515c2.966 0 4.971 1.643 4.971 4.251 0 2.609-2.005 4.251-4.971 4.251h-1.848v2.145c0 1.021-.661 1.712-1.667 1.712-1.007 0-1.668-.691-1.668-1.712v.007zm5.474-5.295c.708 0 1.188-.464 1.188-1.108 0-.644-.48-1.108-1.188-1.108h-2.147v2.208h2.147v.008zm6.104.723c0-3.717 2.596-6.333 6.371-6.333 3.776 0 6.363 2.616 6.363 6.333 0 3.716-2.595 6.332-6.363 6.332-3.767 0-6.371-2.624-6.371-6.332zm6.371 2.97c1.715 0 2.942-1.25 2.942-2.97 0-1.721-1.227-2.97-2.942-2.97-1.714 0-2.941 1.249-2.941 2.97 0 1.72 1.227 2.97 2.941 2.97zm8.975 1.602v-8.941c0-1.021.661-1.713 1.667-1.713h3.579c2.887 0 4.869 1.729 4.869 4.22 0 1.445-.661 2.624-1.77 3.37l1.432 2.09c.338.487.448.919.448 1.297 0 .746-.763 1.382-1.604 1.382a1.588 1.588 0 0 1-1.353-.707l-2.148-3.213h-1.793v2.208c0 1.021-.661 1.712-1.667 1.712-1.007 0-1.668-.691-1.668-1.712l.008.007zm5.459-5.358c.676 0 1.179-.432 1.179-1.069 0-.636-.503-1.068-1.179-1.068h-2.132v2.145h2.132v-.008zm9.832 5.358v-7.362h-2.131c-.984 0-1.676-.675-1.676-1.642 0-.966.692-1.642 1.676-1.642h7.59c.983 0 1.675.676 1.675 1.642 0 .967-.692 1.642-1.675 1.642h-2.132v7.362c0 1.022-.66 1.713-1.667 1.713-1.007 0-1.668-.691-1.668-1.713h.008z"/><path fill="#4476EE" d="M216.578 20.986H13.356a1.476 1.476 0 1 1 0-2.954h203.222a1.476 1.476 0 1 1 0 2.954zm37.684 14.787H9.454a1.476 1.476 0 1 1 0-2.955h244.808c.818 0 1.478.66 1.478 1.477 0 .818-.66 1.478-1.478 1.478zm37.526 14.779H9.565a1.476 1.476 0 1 1 0-2.955h282.223a1.476 1.476 0 1 1 0 2.955zm30.747 14.778H9.455a1.476 1.476 0 1 1 0-2.954h313.08c.818 0 1.478.66 1.478 1.477 0 .817-.66 1.477-1.478 1.477zm24.957 14.787H9.454a1.476 1.476 0 1 1 0-2.954h338.038a1.476 1.476 0 1 1 0 2.954zm20.12 14.779H9.565a1.476 1.476 0 1 1 0-2.954h358.047a1.476 1.476 0 1 1 0 2.954zm15.157 14.779H9.565a1.476 1.476 0 1 1 0-2.954H382.76a1.476 1.476 0 1 1 0 2.954h.008zm9.439 14.779H9.454a1.476 1.476 0 1 1 0-2.954h382.754c.818 0 1.478.659 1.478 1.477 0 .817-.66 1.477-1.478 1.477zm0 14.787H9.565a1.476 1.476 0 1 1 0-2.955H392.2a1.476 1.476 0 1 1 0 2.955h.008zm0 14.778H9.454a1.476 1.476 0 1 1 0-2.954h382.754c.818 0 1.478.66 1.478 1.477 0 .817-.66 1.477-1.478 1.477zm0 14.779H9.565a1.476 1.476 0 1 1 0-2.954H392.2a1.476 1.476 0 1 1 0 2.954h.008zm495.9 14.779h-52.125a1.476 1.476 0 1 1 0-2.954h52.125c.818 0 1.478.66 1.478 1.477 0 .817-.66 1.477-1.478 1.477zm-11.296-14.779h-36.559a1.476 1.476 0 1 1 0-2.954h36.559a1.476 1.476 0 1 1 0 2.954zm-484.604 14.779H9.565a1.476 1.476 0 1 1 0-2.954H392.2a1.476 1.476 0 1 1 0 2.954h.008zm510.293 14.787h-70.916a1.476 1.476 0 1 1 0-2.954h70.916a1.476 1.476 0 1 1 0 2.954zm-459.372 0H9.454a1.476 1.476 0 1 1 0-2.954H443.13a1.476 1.476 0 1 1 0 2.954zm475.229 14.779h-88.746a1.476 1.476 0 1 1 0-2.955h88.746c.819 0 1.479.66 1.479 1.478 0 .817-.66 1.477-1.479 1.477zm-468.244 0H9.454a1.476 1.476 0 1 1 0-2.955h440.66a1.477 1.477 0 1 1 0 2.955zm484.109 14.778H829.438a1.476 1.476 0 1 1 0-2.954h104.785c.818 0 1.478.66 1.478 1.477 0 .818-.66 1.477-1.478 1.477zm-480.562 0H9.565a1.476 1.476 0 1 1 0-2.954H453.66a1.476 1.476 0 1 1 0 2.954zm496.427 14.78H831.577c-.818 0-1.478-.66-1.478-1.478 0-.817.66-1.477 1.478-1.477h118.511c.818 0 1.478.66 1.478 1.477 0 .818-.66 1.478-1.478 1.478zm-496.191 0H9.565a1.476 1.476 0 1 1 0-2.955h444.332a1.476 1.476 0 1 1 0 2.955zm512.055 14.786H832.45c-.818 0-1.478-.66-1.478-1.477 0-.817.66-1.477 1.478-1.477h133.502a1.476 1.476 0 1 1 0 2.954zm-512.291 0H9.454a1.476 1.476 0 1 1 0-2.954h444.207a1.476 1.476 0 1 1 0 2.954zm528.156 14.779H834.433a1.476 1.476 0 1 1 0-2.954h147.384a1.476 1.476 0 1 1 0 2.954zm-528.156 0H9.565a1.476 1.476 0 1 1 0-2.954H453.66a1.476 1.476 0 1 1 0 2.954zm544.022 14.779h-160.82c-.818 0-1.478-.66-1.478-1.477 0-.817.66-1.477 1.478-1.477h160.82c.818 0 1.478.66 1.478 1.477 0 .817-.66 1.477-1.478 1.477zm-547.577 0H9.454a1.476 1.476 0 1 1 0-2.954h440.652a1.476 1.476 0 1 1 0 2.954zm563.444 14.779H838.641a1.476 1.476 0 1 1 0-2.954h174.909a1.476 1.476 0 1 1 0 2.954zm-569.044 0H9.454a1.476 1.476 0 1 1 0-2.954h435.052c.818 0 1.478.66 1.478 1.477 0 .817-.66 1.477-1.478 1.477zm697.274 14.786h-43.93a1.476 1.476 0 1 1 0-2.954h43.93a1.476 1.476 0 1 1 0 2.954zm-112.37 0H839.136a1.476 1.476 0 1 1 0-2.954h190.274a1.476 1.476 0 1 1 0 2.954zm-598.079 0H9.454a1.476 1.476 0 1 1 0-2.954h421.869a1.476 1.476 0 1 1 0 2.954h.008zm722.749 14.779h-64.04a1.476 1.476 0 1 1 0-2.954h64.04a1.476 1.476 0 1 1 0 2.954zm-109.1-.389H848.025c-1.12 0-2.025-.67-2.025-1.5s.905-1.5 2.025-1.5h196.955c1.12 0 2.02.67 2.02 1.5s-.9 1.5-2.02 1.5zm-635.192.389H283.923a1.476 1.476 0 1 1 0-2.954h125.865c.818 0 1.478.66 1.478 1.477 0 .817-.66 1.477-1.478 1.477zm-331.674 0H42.64a1.476 1.476 0 1 1 0-2.954h35.474a1.476 1.476 0 1 1 0 2.954zm0 44.345H42.64a1.476 1.476 0 1 1 0-2.954h35.474a1.476 1.476 0 1 1 0 2.954zM1166.11 346H834.885c-1.043 0-1.885-.67-1.885-1.5s.842-1.5 1.885-1.5h331.225c1.05 0 1.89.67 1.89 1.5s-.84 1.5-1.89 1.5zm-771.464.168H319.9a1.476 1.476 0 1 1 0-2.954h74.746a1.476 1.476 0 1 1 0 2.954zm784.054 14.779H824.412c-.818 0-1.478-.66-1.478-1.477 0-.817.66-1.477 1.478-1.477H1178.7a1.476 1.476 0 1 1 0 2.954zm-784.998 0H319.9a1.476 1.476 0 1 1 0-2.954h73.802a1.476 1.476 0 1 1 0 2.954zm797.308 14.787H807.761a1.476 1.476 0 1 1 0-2.954h383.249a1.476 1.476 0 1 1 0 2.954zm-819.213 0H250.494c-.818 0-1.478-.66-1.478-1.477 0-.817.66-1.477 1.478-1.477h121.303a1.476 1.476 0 1 1 0 2.954zm831.523 14.779H773.49c-.818 0-1.478-.66-1.478-1.477 0-.817.66-1.477 1.478-1.477h429.83a1.476 1.476 0 1 1 0 2.954zm-674.157 0h-55.248c-.818 0-1.478-.66-1.478-1.477 0-.817.66-1.477 1.478-1.477h55.248a1.476 1.476 0 1 1 0 2.954zm-162.369 0h-87.315a1.476 1.476 0 1 1 0-2.954h87.315a1.476 1.476 0 1 1 0 2.954z"/><path fill="#4476EE" d="M280.525 390.513H9.455a1.476 1.476 0 1 1 0-2.954h271.07c.818 0 1.478.66 1.478 1.477 0 .817-.66 1.477-1.478 1.477zm935.965 14.779H704.604a1.476 1.476 0 1 1 0-2.955h511.886c.81 0 1.47.66 1.47 1.478 0 .817-.66 1.477-1.47 1.477zm-682.781 0h-90.485a1.476 1.476 0 1 1 0-2.955h90.485a1.477 1.477 0 1 1 0 2.955zm-180.514 0H9.455a1.476 1.476 0 1 1 0-2.955h343.74c.818 0 1.478.66 1.478 1.478 0 .817-.66 1.477-1.478 1.477zm918.455 14.778H708.78c-.818 0-1.478-.66-1.478-1.477 0-.817.66-1.477 1.478-1.477h562.87a1.476 1.476 0 1 1 0 2.954zm-733.395 0H398.068a1.476 1.476 0 1 1 0-2.954h140.187a1.476 1.476 0 1 1 0 2.954zm-198.66 0H9.565a1.476 1.476 0 1 1 0-2.954h330.03a1.476 1.476 0 1 1 0 2.954zm913.865 14.787H712.022a1.476 1.476 0 1 1 0-2.954h541.438a1.476 1.476 0 1 1 0 2.954zm-710.658 0H384.854a1.476 1.476 0 1 1 0-2.954h157.948c.818 0 1.478.66 1.478 1.477 0 .817-.66 1.477-1.478 1.477zm-216.799 0H9.454a1.476 1.476 0 1 1 0-2.954h316.549a1.476 1.476 0 1 1 0 2.954zm927.397 14.779H991.617c-.818 0-1.478-.66-1.478-1.477 0-.817.66-1.477 1.478-1.477H1253.4a1.476 1.476 0 1 1 0 2.954zm-356.263 0H715.262a1.476 1.476 0 1 1 0-2.954h181.875a1.476 1.476 0 1 1 0 2.954zm-226.473 0h-13.843a1.476 1.476 0 1 1 0-2.954h13.843a1.476 1.476 0 1 1 0 2.954zm-123.316 0H371.419a1.476 1.476 0 1 1 0-2.954h175.929a1.476 1.476 0 1 1 0 2.954zm-234.944 0H9.564a1.476 1.476 0 1 1 0-2.954h302.84a1.476 1.476 0 1 1 0 2.954zm953.746 14.779h-225.02a1.476 1.476 0 1 1 0-2.954h225.02a1.476 1.476 0 1 1 0 2.954zm-408.947 0H718.502a1.476 1.476 0 1 1 0-2.954h138.701a1.476 1.476 0 1 1 0 2.954zm-183.298 0h-29.944a1.476 1.476 0 1 1 0-2.954h29.944a1.476 1.476 0 1 1 0 2.954zm-121.217 0H357.985a1.476 1.476 0 1 1 0-2.954h194.703a1.476 1.476 0 1 1 0 2.954zm-253.907 0H9.454a1.476 1.476 0 1 1 0-2.954h289.327c.818 0 1.478.66 1.478 1.477 0 .817-.66 1.477-1.478 1.477zm981.389 14.787h-210.42c-.81 0-1.47-.66-1.47-1.477 0-.817.66-1.477 1.47-1.477h210.42a1.476 1.476 0 1 1 0 2.954zm-441.576 0H721.806a1.476 1.476 0 1 1 0-2.954h116.788c.818 0 1.478.66 1.478 1.477 0 .817-.66 1.477-1.478 1.477zm-161.456 0H344.551a1.476 1.476 0 1 1 0-2.954h332.587a1.476 1.476 0 1 1 0 2.954zm-391.933 0H9.455a1.476 1.476 0 1 1 0-2.954h275.75c.818 0 1.478.66 1.478 1.477 0 .817-.66 1.477-1.478 1.477zm1009.005 14.779h-202.75c-.82 0-1.48-.66-1.48-1.478 0-.817.66-1.477 1.48-1.477h202.75c.81 0 1.47.66 1.47 1.477 0 .818-.66 1.478-1.47 1.478zm-474.352 0h-94.843a1.477 1.477 0 1 1 0-2.955h94.843c.818 0 1.478.66 1.478 1.477 0 .818-.66 1.478-1.478 1.478zm-139.464 0H331.116c-.818 0-1.478-.66-1.478-1.478 0-.817.66-1.477 1.478-1.477h349.278a1.476 1.476 0 1 1 0 2.955zm-507.462 0H9.565a1.476 1.476 0 1 1 0-2.955h163.367a1.476 1.476 0 1 1 0 2.955zm1135.298 14.778h-199.54a1.476 1.476 0 1 1 0-2.954h199.54a1.476 1.476 0 1 1 0 2.954zm-506.849 0h-73.149a1.476 1.476 0 1 1 0-2.954h73.149a1.476 1.476 0 1 1 0 2.954zm-117.747 0H398.17a1.476 1.476 0 1 1 0-2.954h285.464a1.476 1.476 0 1 1 0 2.954zm-534.511 0H9.652a1.476 1.476 0 1 1 0-2.954h139.464c.818 0 1.478.66 1.478 1.477 0 .817-.66 1.477-1.478 1.477h.007zm1173.127 14.779H1170.5a1.476 1.476 0 1 1 0-2.954h151.75a1.476 1.476 0 1 1 0 2.954zm-539.478 0h-51.299a1.476 1.476 0 1 1 0-2.954h51.299a1.476 1.476 0 1 1 0 2.954zm-95.897 0H455.51a1.476 1.476 0 1 1 0-2.954h231.365a1.476 1.476 0 1 1 0 2.954zm-548.819 0H9.392a1.476 1.476 0 1 1 0-2.954h128.664a1.476 1.476 0 1 1 0 2.954zm1198.234 14.787h-135.9a1.476 1.476 0 1 1 0-2.954h135.9c.81 0 1.47.66 1.47 1.477 0 .817-.66 1.477-1.47 1.477zm-557.404 0h-44.173a1.476 1.476 0 1 1 0-2.954h44.173a1.476 1.476 0 1 1 0 2.954zm-88.77 0H493.721a1.476 1.476 0 1 1 0-2.954h196.395a1.476 1.476 0 1 1 0 2.954zm-563.205 0H9.391a1.476 1.476 0 1 1 0-2.954h117.52a1.476 1.476 0 1 1 0 2.954zm1223.399 14.779h-124.29a1.476 1.476 0 1 1 0-2.954h124.29a1.476 1.476 0 1 1 0 2.954zm-656.945 0H504.82a1.476 1.476 0 1 1 0-2.954h188.545c.818 0 1.478.66 1.478 1.477 0 .817-.66 1.477-1.478 1.477zm-578.748 0H9.392a1.476 1.476 0 1 1 0-2.954h105.225a1.476 1.476 0 1 1 0 2.954zm1249.713 14.779H1248.2a1.476 1.476 0 1 1 0-2.954h116.13a1.476 1.476 0 1 1 0 2.954zm-670.352 0H515.674a1.476 1.476 0 1 1 0-2.954h178.304a1.476 1.476 0 1 1 0 2.954zm-592.842 0H9.392a1.476 1.476 0 1 1 0-2.954h91.744c.818 0 1.478.66 1.478 1.477 0 .817-.66 1.477-1.478 1.477zm1279.854 14.779h-113.65a1.476 1.476 0 1 1 0-2.954h113.65a1.476 1.476 0 1 1 0 2.954zm-1294.736 0H9.652a1.476 1.476 0 1 1 0-2.954h76.594a1.476 1.476 0 1 1 0 2.954h.008zm1301.406 14.786h-103.94a1.476 1.476 0 1 1 0-2.954h103.94c.81 0 1.48.66 1.48 1.477 0 .817-.67 1.477-1.48 1.477zm-1318.152 0H9.652a1.476 1.476 0 1 1 0-2.954H69.5a1.476 1.476 0 1 1 0 2.954h.007zm1318.152 14.779h-90.06a1.476 1.476 0 1 1 0-2.954h90.06c.81 0 1.48.66 1.48 1.477 0 .817-.67 1.477-1.48 1.477zm-1337.73 0H9.393a1.476 1.476 0 1 1 0-2.954H49.94a1.476 1.476 0 1 1 0 2.954h-.008zm-17.657 15.361H9.392a1.476 1.476 0 1 1 0-2.955H32.28a1.476 1.476 0 1 1 0 2.955h-.008zm1355.387-.582h-78.51a1.476 1.476 0 1 1 0-2.954h78.51c.81 0 1.47.66 1.47 1.477 0 .817-.66 1.477-1.47 1.477zm0 14.779h-76.1c-.81 0-1.47-.66-1.47-1.477 0-.817.66-1.477 1.47-1.477h76.1c.81 0 1.47.66 1.47 1.477 0 .817-.66 1.477-1.47 1.477zm0 14.787h-76.1c-.81 0-1.47-.66-1.47-1.477 0-.817.66-1.477 1.47-1.477h76.1c.81 0 1.47.66 1.47 1.477 0 .817-.66 1.477-1.47 1.477zm0 14.48h-40.81a1.476 1.476 0 1 1 0-2.954h40.81c.81 0 1.48.66 1.48 1.477 0 .817-.67 1.477-1.48 1.477z"/><path fill="#000" d="M862.293 628.59c-1.927 0-4.027-1.697-4.027-4.785 0-4.157 3.264-8.352 10.602-8.352h11.854c.715 0 1.25.534 1.25 1.249 0 .715-.535 1.297-1.25 1.297h-11.854c-3.712 0-8.054 1.516-8.054 5.806 0 1.65.897 2.231 1.479 2.231.629 0 .668-.361.668-.401 0-.715.582-1.296 1.251-1.296.716 0 1.298.581 1.298 1.296 0 1.43-1.117 2.947-3.217 2.947v.008zm-.582 18.141c-.669 0-1.251-.581-1.251-1.296 0-.668.582-1.249 1.251-1.249h10.508c.669 0 1.251.581 1.251 1.249 0 .715-.582 1.296-1.251 1.296h-10.508zm4.428-2.86c-.134 0-.267-.047-.401-.086a1.267 1.267 0 0 1-.802-1.611l7.511-23.099c.22-.629.936-1.029 1.613-.802.668.22 1.03.936.802 1.611l-7.512 23.1a1.293 1.293 0 0 1-1.211.895v-.008zm7.244-12.602c-.716 0-1.298-.534-1.298-1.249 0-.715.582-1.297 1.298-1.297h15.881a1.3 1.3 0 0 1 1.298 1.297c0 .715-.583 1.249-1.298 1.249h-15.881zm7.874 15.462a1.298 1.298 0 0 1-1.298-1.296c0-.668.582-1.249 1.298-1.249h10.067c.716 0 1.298.581 1.298 1.249 0 .715-.582 1.296-1.298 1.296h-10.067zm7.157-2.86c-.133 0-.267-.047-.401-.086a1.335 1.335 0 0 1-.849-1.611l7.511-23.052c.22-.668.936-1.076 1.613-.849.668.22 1.03.936.849 1.611l-7.511 23.1a1.295 1.295 0 0 1-1.212.895v-.008zm2.195-25.872c-.669 0-1.251-.582-1.251-1.297s.582-1.249 1.251-1.249h9.258c.715 0 1.297.534 1.297 1.249 0 .715-.582 1.297-1.297 1.297h-9.258zm11.711 28.732c-3.177 0-5.191-2.545-5.191-6.615 0-7.37 5.994-15.73 11.271-15.73 3.217 0 5.192 2.499 5.192 6.569 0 7.369-5.994 15.768-11.272 15.768v.008zm6.08-20.153c-3.759 0-9.077 6.969-9.077 13.538 0 1.697.402 4.423 2.997 4.423 3.713 0 9.077-7.016 9.077-13.584 0-1.65-.401-4.377-2.997-4.377zm8.322 20.153c-.133 0-.267-.047-.401-.086-.582-.228-.849-.896-.629-1.43l5.506-13.05c1.833-4.557 1.298-5.587 1.211-5.673 0-.047-.134-.047-.22-.047-.936 0-2.643 1.516-3.846 3.975-.268.535-.936.762-1.479.535a1.106 1.106 0 0 1-.488-1.477c1.164-2.413 3.398-5.225 5.813-5.225.897 0 1.612.361 2.061.982.896 1.343.582 3.795-.984 7.77h-.047l-5.458 13.051c-.181.4-.582.667-1.031.667l-.008.008zm11.94 0c-1.069 0-1.652-.487-1.927-.895-.488-.762-.488-1.878.087-3.308l4.562-12.155c1.211-3.127.849-3.708.802-3.708 0 0-.087-.095-.401-.095-1.078 0-2.997.983-4.877 2.507-.448.401-1.164.314-1.518-.134-.401-.495-.314-1.163.134-1.563 1.117-.896 3.933-2.994 6.261-2.994 1.03 0 1.785.362 2.234 1.029.763 1.077.582 2.813-.582 5.767l-4.562 12.108v.047c-.268.668-.315 1.029-.315 1.21h.086c1.298 0 4.028-2.231 5.231-4.337.315-.534.983-.668 1.518-.401.535.315.669.982.401 1.517-1.345 2.278-4.562 5.405-7.157 5.405h.023z"/><path fill="#000" d="M942.663 654.549c-6.355 0-9.171-2.86-9.171-5.806 0-1.25.582-5.453 8.676-6.074.535-.047 1.03.362 1.117.935 0 .582-.449 1.077-.983 1.116-4.248.314-6.757 1.831-6.757 4.023 0 1.877 2.234 3.755 7.11 3.755 4.161 0 7.827-2.145 7.827-4.69 0-1.344-.449-2.098-3.398-3.308l-3.312-1.43c-1.785-.762-3.531-1.697-3.531-3.261 0-.762.314-1.343.802-1.791-.983-1.029-1.479-2.459-1.479-4.203 0-4.825 4.114-9.429 8.456-9.429 1.652 0 3.13.762 4.066 2.098 1.298-1.029 2.014-1.697 3.084-1.697 1.069 0 2.328.896 2.328 2.278 0 .582-.449.983-1.031.983-.629 0-1.03-.362-1.03-.802 0-.22-.181-.401-.496-.401-.448 0-1.345.802-2.06 1.517.133.534.181 1.076.181 1.744 0 4.824-4.075 9.428-8.456 9.428-.535 0-1.07-.047-1.612-.267-.401.087-.716.22-.716.535 0 .314.362.581 2.367 1.429l3.265 1.383c2.816 1.21 4.609 2.46 4.609 5.186 0 3.708-4.476 6.749-9.887 6.749h.031zm-1.03-20.734c0 1.964 1.117 3.708 2.997 3.708 3.177 0 6.442-3.708 6.442-7.417 0-1.791-1.078-3.661-3.044-3.661-3.217 0-6.395 3.708-6.395 7.37zm29.574-5.225c-1.927 0-3.98-1.697-3.98-4.785 0-4.204 3.264-8.352 10.602-8.352h11.807c.715 0 1.25.534 1.25 1.249 0 .668-.535 1.297-1.25 1.297h-11.807c-3.759 0-8.054 1.516-8.054 5.806 0 1.61.85 2.231 1.432 2.231.668 0 .668-.361.668-.448 0-.715.535-1.249 1.298-1.249.716 0 1.251.534 1.251 1.249 0 1.477-1.165 2.994-3.217 2.994v.008zm9.887 15.596c.715 0 1.25.534 1.25 1.249 0 .668-.535 1.296-1.25 1.296h-10.422c-.716 0-1.251-.62-1.251-1.296 0-.715.535-1.249 1.251-1.249h10.422zm2.729-24.31-7.559 23.1a1.303 1.303 0 0 1-1.211.848c-.134 0-.268 0-.401-.094-.63-.22-1.031-.896-.803-1.564l7.473-23.099c.267-.668.983-1.029 1.651-.762.669.181 1.031.896.85 1.563v.008zm24.377 33.604c0 2.326-3.49 4.29-6.36 4.29-3.395 0-6.172-1.296-8.72-4.156-1.518-1.697-2.95-3.929-4.656-7.331l-7.339-14.252c-.362-.668-.086-1.383.535-1.744.629-.315 1.431-.087 1.699.534l7.338 14.3c1.566 3.174 2.95 5.272 4.295 6.749 2.147 2.325 4.114 3.355 6.838 3.355 2.11 0 3.63-1.297 3.8-1.745 0-.715.63-1.249 1.3-1.249s1.25.582 1.25 1.249h.02zm-24.92-24.662c-.448-.582-.314-1.383.268-1.831l12.616-8.58c.535-.361 1.345-.228 1.746.361.362.582.268 1.344-.362 1.792l-12.522 8.58c-.267.133-.487.228-.715.228a1.27 1.27 0 0 1-1.031-.535v-.015zm12.436-10.812c-.716 0-1.251-.628-1.251-1.296 0-.715.535-1.249 1.251-1.249h8.544c.67 0 1.3.534 1.3 1.249 0 .668-.63 1.296-1.3 1.296h-8.544z"/><path fill="#000" d="M1002.02 646.731c-3.173 0-5.187-2.545-5.187-6.615 0-7.37 5.997-15.73 11.267-15.73 3.22 0 5.2 2.499 5.2 6.569 0 7.369-6 15.768-11.28 15.768v.008zm6.08-20.153c-3.76 0-9.072 6.969-9.072 13.538 0 1.697.401 4.423 2.992 4.423 3.72 0 9.08-7.016 9.08-13.584 0-1.65-.4-4.377-3-4.377zm8.33 20.153c-.14 0-.27-.047-.4-.086a1.103 1.103 0 0 1-.63-1.43l5.5-13.05c1.83-4.557 1.3-5.587 1.21-5.673 0-.047-.13-.047-.22-.047-.93 0-2.64 1.516-3.84 3.975-.27.535-.94.762-1.48.535a1.12 1.12 0 0 1-.5-1.477c1.17-2.413 3.4-5.225 5.82-5.225.89 0 1.61.361 2.06.982.89 1.343.58 3.795-.99 7.77h-.04l-5.46 13.051c-.18.4-.59.667-1.03.667v.008zm11.94 0c-1.08 0-1.66-.487-1.93-.895-.5-.762-.5-1.878.09-3.308l4.56-12.155c1.21-3.127.85-3.708.8-3.708 0 0-.09-.095-.4-.095-1.07 0-3 .983-4.88 2.507-.45.401-1.16.314-1.52-.134-.4-.495-.31-1.163.14-1.563 1.11-.896 3.93-2.994 6.26-2.994 1.03 0 1.79.362 2.23 1.029.77 1.077.58 2.813-.58 5.767l-4.56 12.108v.047c-.27.668-.32 1.029-.32 1.21h.09c1.3 0 4.03-2.231 5.23-4.337.32-.534.98-.668 1.52-.401.53.315.67.982.4 1.517-1.34 2.278-4.56 5.405-7.16 5.405h.03z"/><path fill="#000" d="M1042.37 654.549c-6.36 0-9.17-2.86-9.17-5.806 0-1.25.58-5.453 8.67-6.074.54-.047 1.03.362 1.12.935 0 .582-.45 1.077-.99 1.116-4.24.314-6.75 1.831-6.75 4.023 0 1.877 2.23 3.755 7.11 3.755 4.16 0 7.82-2.145 7.82-4.69 0-1.344-.44-2.098-3.39-3.308l-3.31-1.43c-1.79-.762-3.54-1.697-3.54-3.261 0-.762.32-1.343.81-1.791-.99-1.029-1.48-2.459-1.48-4.203 0-4.825 4.11-9.429 8.45-9.429 1.65 0 3.13.762 4.07 2.098 1.3-1.029 2.01-1.697 3.08-1.697 1.07 0 2.33.896 2.33 2.278 0 .582-.45.983-1.03.983-.63 0-1.03-.362-1.03-.802 0-.22-.18-.401-.5-.401-.44 0-1.34.802-2.06 1.517.14.534.18 1.076.18 1.744 0 4.824-4.06 9.428-8.45 9.428-.54 0-1.08-.047-1.61-.267-.4.087-.72.22-.72.535 0 .314.36.581 2.37 1.429l3.26 1.383c2.82 1.21 4.61 2.46 4.61 5.186 0 3.708-4.47 6.749-9.88 6.749h.03zm-1.03-20.734c0 1.964 1.11 3.708 2.99 3.708 3.18 0 6.44-3.708 6.44-7.417 0-1.791-1.07-3.661-3.04-3.661-3.22 0-6.39 3.708-6.39 7.37zm20.93 12.916c-.67 0-1.25-.581-1.25-1.249 0-.715.58-1.296 1.25-1.296h9.66c.71 0 1.29.581 1.29 1.296 0 .668-.58 1.249-1.29 1.249h-9.66zm5.64-2.993c-.14 0-.27 0-.41-.047a1.266 1.266 0 0 1-.8-1.611l7.34-22.565c.22-.668.94-1.029 1.61-.801.67.22 1.03.934.81 1.61l-7.34 22.565c-.18.535-.67.849-1.21.849zm3.71-25.739c-.72 0-1.3-.582-1.3-1.25 0-.715.58-1.296 1.3-1.296h9.66c.67 0 1.25.581 1.25 1.296 0 .668-.58 1.25-1.25 1.25h-9.66zm9.84 28.732c-4.08 0-5.91-1.964-5.91-3.928 0-1.344 1.25-2.679 2.55-2.679.63 0 1.12.487 1.12 1.115 0 .582-.5 1.077-1.12 1.077-.13.047-.36.314-.36.487 0 .668.98 1.744 3.71 1.744 3.18 0 5.68-2.192 5.68-4.958 0-1.115-.76-2.498-1.57-3.889-.31-.487-.13-1.163.41-1.477.53-.314 1.21-.133 1.47.401 1.03 1.658 1.88 3.308 1.88 4.957 0 4.023-3.44 7.15-7.87 7.15h.01zm2.46-10.143c-.36 0-.72-.228-.94-.534-1.07-1.784-1.96-3.355-1.96-5.092 0-3.574 3.36-6.568 7.34-6.568 3.21 0 4.96 1.784 4.96 3.489 0 .62-.5 1.076-1.08 1.076-.63 0-1.11-.448-1.11-1.076 0-.315-.67-1.297-2.78-1.297-2.73 0-5.1 2.059-5.1 4.376 0 1.163.72 2.46 1.61 3.929.32.534.19 1.21-.36 1.516-.18.087-.36.181-.58.181zm10.11 10.143c-1.12 0-1.7-.581-1.97-.935-.49-.762-.53-1.83 0-3.221l3.89-10.992 4.88-14.213c.18-.581.8-.896 1.43-.715.54.228.85.848.63 1.43l-4.83 14.205-4.02 10.992c-.22.762-.22 1.163-.22 1.296h.22c2.06 0 4.29-2.231 5.45-4.376.37-.487.99-.668 1.48-.361.54.267.72 1.029.36 1.477-1.39 2.545-4.21 5.405-7.29 5.405l-.01.008zm4.25-30.563c-.63 0-1.07-.448-1.12-1.029-.05-.535.31-1.116.98-1.163l6.66-.935c.63-.087 1.17.314 1.25.935.09.628-.31 1.115-.89 1.21l-6.76.982h-.13.01zm8.17 30.516c-2.64 0-4.29-2.011-4.29-5.138 0-5.806 6.22-17.16 13.78-17.16.72 0 2.01.134 2.86.487.54.267.77.896.49 1.43-.22.582-.9.802-1.43.535-.36-.134-1.25-.315-1.93-.315-6.12 0-11.63 10.191-11.63 15.015 0 1.925.72 2.946 2.15 2.946 1.83 0 4.11-1.878 6.08-4.918.36-.487 1.03-.621 1.51-.314.49.361.63 1.029.32 1.516-2.46 3.756-5.28 5.9-7.92 5.9l.01.016zm9 .047c-2.65 0-1.52-3.307-.14-7.417l5.15-14.118c.18-.582.8-.896 1.38-.668.53.228.85.801.63 1.382l-5.1 14.119c-.53 1.65-1.07 3.261-1.3 4.204.54-.401 1.35-1.163 2.24-2.459.31-.488 1.03-.621 1.52-.268.49.315.63 1.03.26 1.517-1.25 1.783-3.08 3.708-4.64 3.708zm8.63 0c-.13 0-.27-.047-.4-.086-.58-.228-.85-.896-.63-1.43l5.51-13.05c1.83-4.557 1.29-5.587 1.21-5.673 0-.047-.14-.047-.22-.047-.94 0-2.64 1.516-3.85 3.975-.27.535-.93.762-1.48.535a1.103 1.103 0 0 1-.48-1.477c1.16-2.413 3.39-5.225 5.81-5.225.89 0 1.61.361 2.06.982.9 1.343.58 3.795-.98 7.77h-.05l-5.46 13.051c-.18.4-.58.667-1.03.667l-.01.008zm11.94 0c-1.07 0-1.65-.487-1.93-.895-.48-.762-.48-1.878.09-3.308l4.56-12.155c1.21-3.127.85-3.708.81-3.708 0 0-.09-.095-.41-.095-1.07 0-2.99.983-4.87 2.507-.45.401-1.17.314-1.52-.134a1.12 1.12 0 0 1 .13-1.563c1.12-.896 3.94-2.994 6.26-2.994 1.03 0 1.79.362 2.24 1.029.76 1.077.58 2.813-.58 5.767l-4.57 12.108v.047c-.26.668-.31 1.029-.31 1.21h.09c1.29 0 4.02-2.231 5.23-4.337.31-.534.98-.668 1.51-.401.54.315.67.982.41 1.517-1.35 2.278-4.57 5.405-7.16 5.405h.02zm12.3 0c-2.81 0-4.06-2.365-4.06-4.737 0-5.767 6.57-17.608 14.22-17.608.31 0 .58 0 .89.047.59.087 1.03.621.94 1.21-.09.582-.63 1.03-1.21.935-.18 0-.4-.047-.63-.047-5.68 0-12.07 10.096-12.07 15.463 0 .62.13 2.592 1.92 2.592 1.39 0 2.87-.715 4.43-2.145.45-.361 1.12-.361 1.52.087.4.448.36 1.163-.09 1.516-1.96 1.792-3.93 2.679-5.86 2.679v.008zm15.57-29.447c.18-.535.8-.849 1.38-.629.54.181.81.801.63 1.343l-7.51 21.049c-1.38 3.889-1.88 5.539-1.12 5.539 1.08 0 3.5-1.563 5.01-4.337.27-.534.94-.715 1.44-.4.53.267.71.942.44 1.43-1.69 3.127-4.64 5.452-6.89 5.452-.89 0-1.56-.314-2.01-.895-.8-1.163-.45-3.127 1.12-7.551l7.51-21.001zm-2.68-1.383c-.5 0-.99-.362-1.03-.896-.09-.629.31-1.163.89-1.249l6.58-.896c.63-.086 1.16.314 1.21.943.09.581-.31 1.116-.9 1.21l-6.57.896h-.18v-.008z"/><path fill="#000" d="M1173.58 672.447H853.916c-.818 0-1.479-.66-1.479-1.477 0-9.342-7.606-16.94-16.958-16.94-.818 0-1.479-.66-1.479-1.477v-40.667c0-.817.661-1.477 1.479-1.477 9.352 0 16.958-7.598 16.958-16.932 0-.817.661-1.477 1.479-1.477h319.664c.82 0 1.48.66 1.48 1.477 0 9.334 7.6 16.932 16.95 16.932.82 0 1.48.66 1.48 1.477v40.667c0 .817-.66 1.477-1.48 1.477-9.35 0-16.95 7.598-16.95 16.94 0 .817-.66 1.477-1.48 1.477zm-318.241-2.954h316.821c.72-9.798 8.57-17.639 18.37-18.362v-37.823c-9.8-.723-17.65-8.564-18.37-18.354H855.339c-.723 9.79-8.573 17.631-18.382 18.354v37.823c9.809.723 17.659 8.564 18.382 18.362zm222.071-562.435c-.66 0-1.25-.581-1.25-1.249 0-.715.59-1.296 1.25-1.296h10.87c.72 0 1.26.581 1.26 1.296 0 .668-.54 1.249-1.26 1.249h-10.87zm4.43-2.993c-.08 0-.22 0-.36-.047-.67-.22-1.03-.935-.85-1.611l7.34-22.565c.22-.668.94-1.03 1.61-.801.67.22 1.03.935.81 1.61l-7.34 22.565c-.14.535-.67.849-1.21.849zm4.93-25.74c-.72 0-1.3-.58-1.3-1.296 0-.668.58-1.249 1.3-1.249h9.66c.71 0 1.25.581 1.25 1.25 0 .714-.54 1.296-1.25 1.296h-9.66zm2.64 12.422c-.45 0-.85-.22-1.12-.58-.36-.63-.18-1.384.45-1.785 0 0 .72-.4 1.65-1.029l12.04-8.446c.53-.4 1.34-.267 1.74.314.4.582.27 1.344-.31 1.745l-12.04 8.493c-1.03.668-1.78 1.116-1.78 1.116-.18.133-.4.18-.63.18v-.007zm11 13.318c-.4 0-.76-.181-1.03-.487l-8.36-11.393c-.4-.581-.27-1.383.32-1.783.53-.4 1.34-.314 1.74.267l8.36 11.392c.41.582.32 1.383-.26 1.784-.22.181-.49.22-.77.22zm-5.86 2.993c-.71 0-1.29-.581-1.29-1.249 0-.715.58-1.296 1.29-1.296h10.34c.71 0 1.3.581 1.3 1.296 0 .668-.59 1.249-1.3 1.249h-10.34zm7.96-28.732c-.71 0-1.29-.582-1.29-1.297 0-.668.58-1.249 1.29-1.249h8.55c.71 0 1.25.581 1.25 1.25 0 .714-.54 1.296-1.25 1.296h-8.55zm10.1 28.732c-3.17 0-5.19-2.545-5.19-6.615 0-7.37 6-15.73 11.27-15.73 3.22 0 5.19 2.499 5.19 6.569 0 7.37-5.99 15.776-11.27 15.776zm6.08-20.153c-3.76 0-9.07 6.97-9.07 13.538 0 1.697.4 4.423 2.99 4.423 3.72 0 9.08-7.016 9.08-13.584 0-1.65-.4-4.376-3-4.376zm8.82 6.569c-1.56 0-2.68-1.163-2.68-2.86 0-2.994 3.04-5.854 6.31-5.854 1.03 0 1.88.087 2.64.181.8.087 1.52.18 2.5.18.67 0 1.16-.18 1.3-.313.4-.448 1.07-.488 1.56-.087.45.361.54 1.069.14 1.564-.85.935-2.37 1.076-3 1.076-1.12 0-1.97-.086-2.78-.228-.76-.047-1.43-.133-2.36-.133-2.02 0-4.12 1.83-4.12 3.622 0 .628.36.628.5.628.27 0 .45-.18.45-.314 0-.582.49-1.116 1.11-1.116.62 0 1.12.535 1.12 1.116 0 1.383-1.21 2.545-2.68 2.545l-.01-.007zm20.08 13.584c-2.78 0-5.06-1.343-6.44-3.755-2.42 2.365-5.01 3.622-7.47 3.622-3.31 0-5.64-2.326-5.64-5.673 0-3.842 2.59-7.778 6.75-12.917.4-.448 1.12-.534 1.57-.133.49.4.58 1.076.18 1.563-3.76 4.604-6.26 8.313-6.26 11.487 0 1.611.9 3.489 3.4 3.489 2.06 0 4.38-1.297 6.57-3.662-.31-1.21-.63-3.08-.63-4.376 0-4.777 1.88-11.927 5.91-11.927 2.06 0 3.4 1.564 3.4 4.023 0 2.64-1.75 6.788-4.43 10.544-.36.495-1.08.628-1.57.267s-.62-1.076-.26-1.564c2.36-3.307 4.02-7.102 4.02-9.247 0-1.784-.89-1.784-1.16-1.784-1.65 0-3.67 4.47-3.67 9.696 0 1.21.41 3.308.67 4.337.9 2.498 2.64 3.795 5.06 3.795 4.96 0 7.21-7.37 7.21-12.642 0-3.355-.54-5.225-1.48-5.225-.95 0-1.08.448-1.12.629-.22.534-.9.848-1.48.628-.53-.22-.85-.896-.63-1.43.54-1.296 1.7-2.058 3.22-2.058 3.66 0 3.66 5.633 3.66 7.464 0 7.197-3.26 14.881-9.39 14.881l.01-.032zm12.62 0c-1.12 0-1.7-.581-1.97-.935-.49-.762-.53-1.83 0-3.213l3.89-10.992 4.88-14.205c.18-.582.8-.896 1.43-.715.54.22.85.848.63 1.43l-4.83 14.205-4.02 10.992c-.22.762-.22 1.163-.22 1.296h.22c2.06 0 4.29-2.231 5.45-4.376.37-.495.99-.668 1.48-.361.54.267.72 1.029.36 1.477-1.39 2.545-4.21 5.405-7.29 5.405l-.01-.008zm4.24-30.563c-.62 0-1.06-.448-1.11-1.03-.05-.534.31-1.115.98-1.162l6.66-.935c.63-.087 1.17.314 1.25.935.09.628-.31 1.116-.89 1.21l-6.76.982h-.13zm9.84 30.563c-3.17 0-5.19-2.545-5.19-6.615 0-7.37 6-15.73 11.27-15.73 3.22 0 5.2 2.499 5.2 6.569 0 7.37-6 15.776-11.28 15.776zm6.08-20.153c-3.75 0-9.07 6.97-9.07 13.538 0 1.697.4 4.423 2.99 4.423 3.72 0 9.08-7.016 9.08-13.584 0-1.65-.4-4.376-3-4.376zm11.37 20.153c-3.18 0-5.19-2.545-5.19-6.615 0-7.37 5.99-15.73 11.27-15.73 3.22 0 5.19 2.499 5.19 6.569 0 7.37-5.99 15.776-11.27 15.776zm6.08-20.153c-3.76 0-9.08 6.97-9.08 13.538 0 1.697.4 4.423 3 4.423 3.71 0 9.08-7.016 9.08-13.584 0-1.65-.4-4.376-3-4.376zm8.32 20.153c-.13 0-.27-.047-.4-.086-.58-.228-.85-.896-.63-1.43l5.51-13.05c1.83-4.557 1.3-5.587 1.21-5.673 0-.047-.13-.047-.22-.047-.94 0-2.64 1.516-3.85 3.975-.26.535-.93.763-1.48.535a1.113 1.113 0 0 1-.49-1.477c1.16-2.412 3.4-5.225 5.81-5.225.9 0 1.61.361 2.06.982.9 1.344.58 3.795-.98 7.778h-.05l-5.46 13.051c-.18.4-.58.667-1.03.667zm11.94 0c-1.08 0-1.65-.494-1.92-.895-.5-.762-.5-1.878.08-3.308l4.56-12.155c1.21-3.127.85-3.708.81-3.708 0 0-.09-.087-.41-.087-1.06 0-2.99.983-4.87 2.499-.45.4-1.17.314-1.52-.134-.4-.495-.31-1.162.13-1.563 1.12-.896 3.94-2.994 6.26-2.994 1.04 0 1.8.362 2.24 1.03.76 1.076.58 2.812-.58 5.767l-4.57 12.107v.047c-.26.668-.31 1.03-.31 1.21h.09c1.29 0 4.02-2.231 5.23-4.337.31-.534.98-.668 1.52-.4.53.314.66.982.4 1.516-1.35 2.278-4.57 5.405-7.16 5.405h.02zm13.56 17.262h-166.79a1.476 1.476 0 1 1 0-2.954h166.79a1.476 1.476 0 1 1 0 2.954zm6.3 0c-.82 0-1.48-.66-1.48-1.477V70.657c0-.817.66-1.477 1.48-1.477s1.48.66 1.48 1.477v52.186c0 .817-.66 1.477-1.48 1.477zm0-58.369h-166.79a1.476 1.476 0 1 1 0-2.954h166.79a1.476 1.476 0 1 1 0 2.954zm-173.09 51.424c-.81 0-1.47-.66-1.47-1.478V64.474a1.474 1.474 0 1 1 2.95 0v51.423c0 .818-.66 1.478-1.48 1.478z"/><path fill="#000" d="M1247.4 65.841h-9.46c-.82 0-1.48-.66-1.48-1.477v-9.452c0-.817.66-1.477 1.48-1.477h9.46c.82 0 1.48.66 1.48 1.477v9.452c0 .817-.66 1.477-1.48 1.477zm-7.98-2.954h6.51v-6.498h-6.51v6.498z"/><path fill="#000" d="M1256.87 56.39h-9.46c-.82 0-1.48-.66-1.48-1.478V45.46c0-.817.66-1.477 1.48-1.477h9.46c.82 0 1.48.66 1.48 1.477v9.452c0 .817-.66 1.477-1.48 1.477zm-7.99-2.955h6.51v-6.498h-6.51v6.498zm-10.94 2.955h-9.46c-.82 0-1.48-.66-1.48-1.478V45.46c0-.817.66-1.477 1.48-1.477h9.46c.82 0 1.48.66 1.48 1.477v9.452c0 .817-.66 1.477-1.48 1.477zm-7.98-2.955h6.5v-6.498h-6.5v6.498zm26.91 21.85h-9.46c-.82 0-1.48-.66-1.48-1.477v-9.452c0-.817.66-1.477 1.48-1.477h9.46c.82 0 1.48.66 1.48 1.477v9.452c0 .817-.66 1.477-1.48 1.477zm-7.99-2.954h6.51v-6.498h-6.51v6.498zm-1.48 61.441h-9.46c-.82 0-1.48-.66-1.48-1.477v-9.452c0-.817.66-1.477 1.48-1.477h9.46c.82 0 1.48.66 1.48 1.477v9.452c0 .817-.66 1.477-1.48 1.477zm-7.98-2.954h6.51v-6.498h-6.51v6.498z"/><path fill="#000" d="M1256.87 143.216h-9.46c-.82 0-1.48-.66-1.48-1.477v-9.452c0-.817.66-1.477 1.48-1.477h9.46c.82 0 1.48.66 1.48 1.477v9.452c0 .817-.66 1.477-1.48 1.477zm-7.99-2.954h6.51v-6.498h-6.51v6.498zm-10.94 2.954h-9.46c-.82 0-1.48-.66-1.48-1.477v-9.452c0-.817.66-1.477 1.48-1.477h9.46c.82 0 1.48.66 1.48 1.477v9.452c0 .817-.66 1.477-1.48 1.477zm-7.98-2.954h6.5v-6.498h-6.5v6.498zm26.91-15.942h-9.46c-.82 0-1.48-.66-1.48-1.477v-9.452c0-.817.66-1.477 1.48-1.477h9.46c.82 0 1.48.66 1.48 1.477v9.452c0 .817-.66 1.477-1.48 1.477zm-7.99-2.954h6.51v-6.498h-6.51v6.498zm-184.03-55.525h-9.46c-.82 0-1.48-.66-1.48-1.477v-9.452c0-.817.66-1.477 1.48-1.477h9.46c.82 0 1.48.66 1.48 1.477v9.452c0 .817-.66 1.477-1.48 1.477zm-7.98-2.954h6.51v-6.498h-6.51v6.498z"/><path fill="#000" d="M1055.39 56.39h-9.46c-.82 0-1.48-.66-1.48-1.478V45.46c0-.817.66-1.477 1.48-1.477h9.46c.82 0 1.48.66 1.48 1.477v9.452c0 .817-.66 1.477-1.48 1.477zm-7.98-2.955h6.5v-6.498h-6.5v6.498zm26.9 2.955h-9.46c-.82 0-1.48-.66-1.48-1.478V45.46c0-.817.66-1.477 1.48-1.477h9.46c.82 0 1.48.66 1.48 1.477v9.452c0 .817-.66 1.477-1.48 1.477zm-7.99-2.955h6.51v-6.498h-6.51v6.498zm-10.93 21.85h-9.46c-.82 0-1.48-.66-1.48-1.477v-9.452c0-.817.66-1.477 1.48-1.477h9.46c.82 0 1.48.66 1.48 1.477v9.452c0 .817-.66 1.477-1.48 1.477zm-7.98-2.954h6.5v-6.498h-6.5v6.498zm17.44 61.441h-9.46c-.82 0-1.48-.66-1.48-1.477v-9.452c0-.817.66-1.477 1.48-1.477h9.46c.82 0 1.48.66 1.48 1.477v9.452c0 .817-.66 1.477-1.48 1.477zm-7.98-2.954h6.51v-6.498h-6.51v6.498z"/><path fill="#000" d="M1055.39 143.216h-9.46c-.82 0-1.48-.66-1.48-1.477v-9.452c0-.817.66-1.477 1.48-1.477h9.46c.82 0 1.48.66 1.48 1.477v9.452c0 .817-.66 1.477-1.48 1.477zm-7.98-2.954h6.5v-6.498h-6.5v6.498zm26.9 2.954h-9.46c-.82 0-1.48-.66-1.48-1.477v-9.452c0-.817.66-1.477 1.48-1.477h9.46c.82 0 1.48.66 1.48 1.477v9.452c0 .817-.66 1.477-1.48 1.477zm-7.99-2.954h6.51v-6.498h-6.51v6.498zm-10.93-15.942h-9.46c-.82 0-1.48-.66-1.48-1.477v-9.452c0-.817.66-1.477 1.48-1.477h9.46c.82 0 1.48.66 1.48 1.477v9.452c0 .817-.66 1.477-1.48 1.477zm-7.98-2.954h6.5v-6.498h-6.5v6.498z"/></svg>